<?xml version="1.0" standalone="no"?>
<!DOCTYPE svg PUBLIC "-//W3C//DTD SVG 20010904//EN"
 "http://www.w3.org/TR/2001/REC-SVG-20010904/DTD/svg10.dtd">
<svg version="1.0" xmlns="http://www.w3.org/2000/svg"
 width="626.635999pt" height="415.054100pt" viewBox="0 0 626.635999 415.054100"
 preserveAspectRatio="xMidYMid meet">
<metadata>
Created by potrace 1.12, written by Peter Selinger 2001-2015
</metadata>
<g transform="translate(0.135999,415.000000) scale(0.100000,-0.100000)"
fill="#000000" stroke="none">
<path d="M0 3440 l0 -710 213 -2 212 -3 3 -172 c2 -167 3 -173 23 -173 16 0
20 -5 17 -27 l-3 -28 -232 -3 -233 -2 0 -767 0 -766 20 18 c14 12 41 20 79 23
54 4 59 2 93 -30 46 -43 62 -96 44 -146 l-13 -37 65 -67 c44 -45 63 -71 59
-82 -11 -28 -36 -17 -99 44 -37 35 -69 58 -78 56 -60 -18 -91 -17 -130 3 l-40
21 0 -180 0 -180 33 0 c51 0 57 -13 57 -127 l0 -103 164 1 164 0 -8 35 c-5 19
-4 34 1 34 9 0 13 -15 10 -34 -1 -4 4 -14 10 -22 9 -11 57 -14 244 -14 l233 0
-1 60 c-1 34 4 65 11 72 8 8 74 11 229 11 249 -1 243 1 243 -90 l0 -53 532 0
532 0 -29 30 c-20 21 -32 27 -44 21 -9 -5 -27 -10 -41 -11 -64 -6 -83 1 -121
39 -36 36 -39 43 -39 94 0 49 4 61 31 92 60 68 147 69 207 1 37 -42 47 -94 28
-139 l-14 -35 47 -46 47 -46 535 0 535 0 18 36 c9 20 19 34 22 31 3 -3 1 -14
-5 -25 -6 -12 -11 -25 -11 -31 0 -15 662 -15 677 0 8 8 17 8 31 0 29 -16 30
-15 42 29 22 83 125 105 183 40 15 -16 27 -41 27 -55 0 -26 18 -33 37 -14 8 8
17 8 31 0 14 -7 142 -11 391 -11 l371 0 0 78 0 77 79 82 79 83 62 0 c102 0
100 3 100 -170 l0 -150 265 0 266 0 -3 57 -3 56 -70 -2 c-39 -1 -83 2 -98 8
l-27 11 0 210 0 210 26 10 c14 6 59 10 100 10 l74 0 -2 313 -3 312 -65 5 c-57
4 -65 8 -68 26 -2 15 3 23 17 27 20 5 21 12 21 175 0 187 -2 182 66 182 l34 0
0 225 c0 191 -2 227 -15 231 -8 4 -15 17 -15 29 0 13 -5 27 -10 30 -8 5 -8 11
0 20 6 7 10 17 9 21 -4 22 2 34 16 34 13 0 15 18 13 123 l-3 122 -144 3 c-86
1 -150 7 -158 14 -10 8 -13 50 -13 169 0 146 1 159 19 169 11 5 83 10 160 10
l141 0 0 184 c0 171 -1 185 -18 190 -31 10 -63 52 -73 96 -12 55 15 121 60
145 l31 16 -2 230 -3 231 -219 -2 c-226 -1 -246 2 -246 41 0 12 7 19 20 19 19
0 20 7 20 95 l0 95 -270 0 -270 0 6 -25 c3 -14 2 -25 -3 -25 -5 0 -9 -10 -9
-21 1 -12 -6 -24 -14 -26 -12 -4 -12 -3 -1 5 8 6 11 18 6 31 -4 13 -2 21 6 21
8 0 9 3 0 13 -6 8 -8 17 -4 20 3 4 -3 7 -15 7 -24 0 -31 -22 -21 -67 4 -18 3
-33 -2 -33 -5 0 -9 11 -9 24 0 14 -5 28 -10 31 -8 5 -8 11 -1 19 6 7 8 16 4
19 -3 4 -862 7 -1908 7 l-1901 0 -19 -52 c-10 -29 -20 -47 -22 -41 -2 6 3 28
11 48 9 21 16 39 16 41 0 2 -315 4 -700 4 l-700 0 0 -710z m2650 640 c0 -5 -7
-10 -15 -10 -8 0 -15 5 -15 10 0 6 7 10 15 10 8 0 15 -4 15 -10z m-1423 -112
l53 -53 -160 -160 -160 -160 -116 116 -116 116 101 99 101 99 108 5 c59 3 114
2 122 -2 8 -3 39 -31 67 -60z m3337 56 c3 -9 6 -87 6 -175 0 -154 1 -159 21
-159 16 0 20 -5 17 -27 l-3 -28 -330 0 -330 0 -3 28 c-3 22 1 27 17 27 20 0
21 5 21 163 0 113 4 167 12 175 9 9 87 12 289 12 243 0 278 -2 283 -16z
m-3923 -28 c-8 -10 -9 -16 -1 -21 5 -3 10 -11 10 -17 0 -6 -9 -3 -20 7 -19 17
-19 19 -3 37 19 21 32 16 14 -6z m58 -27 c-13 -10 -26 -16 -28 -13 -3 2 4 11
15 18 18 14 18 15 2 21 -10 4 -18 11 -18 16 0 5 12 2 26 -8 l26 -17 -23 -17z
m1429 39 c9 -8 12 -56 12 -179 0 -162 1 -169 20 -169 23 0 27 -31 6 -49 -18
-15 -624 -15 -643 1 -20 17 -16 48 7 48 19 0 20 8 22 172 l3 172 25 7 c40 12
533 9 548 -3z m946 -4 c14 -13 16 -47 16 -213 0 -140 -3 -200 -12 -209 -8 -8
-57 -12 -155 -12 l-143 0 -10 26 c-6 14 -10 78 -10 142 l0 117 82 82 83 83 67
0 c47 0 71 -5 82 -16z m-528 -39 c-20 -15 -20 -15 0 -30 10 -8 15 -14 9 -14
-5 0 -19 6 -29 14 -20 15 -20 15 0 30 10 8 24 14 29 14 6 0 1 -6 -9 -14z m58
0 c20 -15 20 -15 0 -30 -10 -8 -23 -14 -29 -14 -5 0 -1 7 10 15 20 15 20 15 1
30 -11 8 -16 14 -10 14 5 0 18 -7 28 -15z m2886 -10 c0 -8 -4 -15 -10 -15 -5
0 -10 7 -10 15 0 8 5 15 10 15 6 0 10 -7 10 -15z m-2268 -22 c-3 -16 -10 -31
-16 -35 -8 -6 -8 -8 0 -8 7 0 14 -14 16 -30 3 -19 1 -29 -6 -27 -6 2 -10 12
-8 21 2 10 -2 24 -9 33 -10 12 -10 16 0 23 8 4 10 13 7 19 -8 12 0 31 13 31 5
0 6 -12 3 -27z m51 -5 c2 -18 2 -37 -1 -43 -4 -5 -7 -14 -8 -20 0 -5 -2 -16
-2 -22 -1 -7 -6 -13 -10 -13 -5 0 -7 14 -4 30 2 17 9 30 14 30 6 0 5 7 -2 15
-7 9 -10 18 -7 22 4 3 2 12 -4 20 -9 10 -8 13 4 13 9 0 17 -12 20 -32z m1912
-268 l-160 -159 -30 27 c-16 16 -68 67 -115 115 l-85 87 100 100 99 99 116 3
115 3 60 -57 60 -58 -160 -160z m-435 255 c0 -8 -4 -15 -10 -15 -5 0 -10 7
-10 15 0 8 5 15 10 15 6 0 10 -7 10 -15z m-2390 -10 c0 -8 -4 -15 -10 -15 -5
0 -10 7 -10 15 0 8 5 15 10 15 6 0 10 -7 10 -15z m1240 -10 c0 -8 -4 -15 -10
-15 -5 0 -10 7 -10 15 0 8 5 15 10 15 6 0 10 -7 10 -15z m-3040 -55 c11 -7 14
-38 13 -169 -1 -88 -4 -165 -8 -170 -4 -7 -83 -11 -231 -11 l-224 0 -10 26
c-6 14 -10 87 -10 161 0 113 3 140 17 155 15 16 35 18 227 18 116 0 218 -4
226 -10z m5297 -72 c-18 -9 -18 -11 -1 -29 9 -10 13 -19 7 -19 -5 0 -18 9 -27
19 -16 18 -16 20 5 35 13 8 25 13 28 10 3 -3 -2 -10 -12 -16z m61 -1 c10 -8 9
-14 -4 -28 -10 -11 -22 -19 -27 -19 -6 0 -3 8 6 18 15 17 15 19 -1 36 -17 19
-2 15 26 -7z m-308 5 c0 -13 -12 -22 -22 -16 -10 6 -1 24 13 24 5 0 9 -4 9 -8z
m-3100 -17 c0 -8 -4 -15 -10 -15 -5 0 -10 7 -10 15 0 8 5 15 10 15 6 0 10 -7
10 -15z m85 -120 c-14 -31 -28 -55 -31 -52 -3 2 7 31 21 62 14 32 28 56 30 53
3 -3 -6 -31 -20 -63z m-1207 4 c-2 -6 -8 -10 -13 -10 -5 0 -11 4 -13 10 -2 6
4 11 13 11 9 0 15 -5 13 -11z m1992 -4 c0 -8 -4 -15 -9 -15 -13 0 -22 16 -14
24 11 11 23 6 23 -9z m1913 -75 c-15 -35 -28 -59 -30 -53 -4 12 46 127 53 121
2 -3 -8 -34 -23 -68z m698 47 c-13 -13 -26 -3 -16 12 3 6 11 8 17 5 6 -4 6
-10 -1 -17z m-5213 -38 c-2 -6 -8 -10 -13 -10 -5 0 -11 4 -13 10 -2 6 4 11 13
11 9 0 15 -5 13 -11z m4842 -41 c0 -19 -2 -20 -10 -8 -13 19 -13 30 0 30 6 0
10 -10 10 -22z m-2090 -18 c-11 -7 -12 -11 0 -24 19 -24 6 -29 -15 -6 -18 20
-18 21 1 34 10 8 21 12 24 10 2 -3 -2 -9 -10 -14z m74 -9 c3 -5 -7 -17 -22
-26 -27 -18 -27 -18 -10 2 17 18 17 20 0 37 -16 18 -16 18 5 7 12 -6 24 -15
27 -20z m-2020 -60 c-15 -33 -31 -61 -36 -61 -5 0 -7 3 -5 8 3 4 17 34 31 66
15 33 29 57 31 54 3 -3 -6 -33 -21 -67z m2546 54 c0 -8 -4 -15 -10 -15 -5 0
-10 7 -10 15 0 8 5 15 10 15 6 0 10 -7 10 -15z m-2250 -3 c0 -13 -12 -22 -22
-16 -10 6 -1 24 13 24 5 0 9 -4 9 -8z m2383 -60 c-14 -34 -30 -62 -35 -62 -5
0 -2 12 6 28 7 15 21 45 30 66 9 22 18 37 21 34 3 -2 -7 -32 -22 -66z m-1836
28 c55 -33 78 -108 54 -173 -8 -21 -3 -31 50 -83 59 -59 73 -89 43 -101 -11
-4 -36 14 -78 56 l-63 63 -42 -12 c-157 -42 -250 162 -114 251 37 25 109 25
150 -1z m3256 -6 c46 -46 46 -103 1 -156 -12 -15 -25 -41 -29 -57 -4 -20 -18
-37 -41 -50 -39 -23 -54 -27 -36 -9 7 7 12 40 12 79 0 59 -2 67 -21 72 -27 7
-22 42 6 42 18 0 20 -9 25 -90 6 -105 17 -103 18 4 0 76 10 98 36 88 23 -9 20
-38 -4 -44 -17 -5 -20 -14 -20 -62 0 -40 3 -52 10 -41 5 8 10 22 10 30 0 8 11
28 25 44 33 39 39 60 25 101 -14 43 -44 65 -88 65 -44 0 -68 -14 -88 -52 -19
-37 -12 -88 16 -113 11 -10 24 -34 30 -54 14 -50 11 -63 -4 -21 -7 19 -25 53
-40 74 -30 45 -33 91 -9 126 27 40 45 49 94 50 37 0 52 -5 72 -26z m-728 -34
c-16 -18 -16 -20 -1 -26 9 -3 16 -11 16 -17 0 -6 -10 -1 -22 11 -23 23 -23 23
-4 38 28 20 32 18 11 -6z m75 -11 c0 -3 -9 -14 -20 -24 -22 -20 -28 -7 -7 14
10 11 10 14 0 18 -7 3 -13 9 -13 14 0 5 9 4 20 -3 11 -7 20 -16 20 -19z
m-2170 6 c0 -8 -4 -15 -10 -15 -5 0 -10 7 -10 15 0 8 5 15 10 15 6 0 10 -7 10
-15z m488 -13 c2 -7 -3 -12 -12 -12 -9 0 -16 7 -16 16 0 17 22 14 28 -4z
m1286 2 c13 -13 16 -46 16 -202 0 -247 10 -232 -165 -232 -108 0 -137 3 -149
16 -13 12 -16 41 -16 147 l0 131 78 78 77 78 72 0 c52 0 76 -4 87 -16z m-3854
-14 c0 -5 -7 -10 -15 -10 -8 0 -15 5 -15 10 0 6 7 10 15 10 8 0 15 -4 15 -10z
m340 -15 c7 -8 8 -15 2 -15 -5 0 -15 7 -22 15 -7 8 -8 15 -2 15 5 0 15 -7 22
-15z m-906 -62 c-23 -52 -56 -103 -41 -63 23 62 51 120 58 120 5 0 -3 -26 -17
-57z m1065 43 c54 -28 67 -105 26 -154 -14 -16 -30 -47 -37 -68 -8 -23 -24
-44 -43 -55 -35 -21 -54 -24 -37 -7 7 7 12 40 12 79 0 59 -2 67 -21 72 -27 7
-22 42 6 42 18 0 20 -8 23 -87 1 -49 7 -88 12 -88 5 0 11 39 12 88 3 79 5 87
23 87 28 0 33 -35 6 -42 -19 -5 -21 -12 -20 -67 l1 -61 12 37 c6 21 19 46 28
57 48 56 47 116 -1 151 -53 37 -121 20 -150 -37 -17 -34 -13 -56 19 -105 16
-25 32 -60 35 -79 l5 -34 -14 37 c-8 20 -26 54 -40 75 -71 104 31 217 143 159z
m-726 -43 c56 -28 85 -120 56 -175 -9 -17 -2 -29 56 -89 56 -58 65 -72 55 -84
-7 -8 -17 -15 -22 -15 -5 0 -38 29 -73 64 -46 46 -67 61 -78 55 -27 -15 -101
-13 -134 5 -59 30 -86 101 -64 169 14 43 38 65 88 82 40 14 70 11 116 -12z
m3481 21 c14 -5 16 -30 16 -170 0 -151 -1 -164 -19 -174 -12 -6 -102 -10 -225
-10 -173 0 -207 2 -220 16 -13 13 -16 43 -16 168 0 105 4 156 12 164 13 13
421 18 452 6z m-2109 -55 c9 -14 9 -399 0 -421 -6 -16 -23 -18 -149 -18 -97 0
-146 4 -154 12 -17 17 -17 409 0 426 16 16 294 17 303 1z m3580 -19 c-10 -11
-20 -18 -23 -15 -7 6 18 35 31 35 5 0 2 -9 -8 -20z m235 -12 c0 -6 -7 -5 -15
2 -8 7 -15 17 -15 22 0 6 7 5 15 -2 8 -7 15 -17 15 -22z m240 -13 c-4 -19 -4
-51 0 -70 5 -20 4 -33 -1 -29 -5 3 -9 15 -9 28 0 12 -5 27 -12 34 -9 9 -9 12
0 12 7 0 12 11 12 23 0 20 7 37 16 37 1 0 -2 -16 -6 -35z m52 -35 c0 -28 -4
-56 -9 -61 -5 -5 -9 2 -8 19 0 15 5 30 10 35 7 5 7 10 0 15 -5 4 -10 19 -10
34 -1 17 3 24 8 19 5 -5 9 -33 9 -61z m-5262 50 c0 -5 -7 -10 -15 -10 -8 0
-15 5 -15 10 0 6 7 10 15 10 8 0 15 -4 15 -10z m2680 6 c0 -11 -59 -129 -60
-119 0 19 44 123 53 123 4 0 7 -2 7 -4z m1744 -12 c23 -22 24 -405 1 -424 -19
-16 -281 -15 -301 1 -11 9 -14 53 -14 215 0 183 2 204 18 213 9 6 76 11 149
11 107 0 135 -3 147 -16z m-2024 -29 c-7 -8 -17 -15 -22 -15 -6 0 -5 7 2 15 7
8 17 15 22 15 6 0 5 -7 -2 -15z m-49 -31 c43 -39 41 -125 -4 -163 -9 -7 -19
-28 -23 -47 -5 -27 -15 -39 -45 -55 -22 -10 -39 -15 -39 -9 0 5 5 10 10 10 6
0 10 30 10 69 0 61 -2 69 -21 74 -27 7 -22 42 6 42 18 0 20 -8 25 -90 l4 -90
6 90 c5 84 7 90 28 93 17 3 22 -2 22 -18 0 -13 -8 -24 -20 -27 -17 -5 -20 -14
-20 -59 0 -58 14 -73 23 -25 3 15 17 42 31 59 18 21 26 41 26 68 -1 56 -27 85
-83 91 -41 5 -49 2 -77 -25 -40 -40 -40 -82 0 -141 19 -27 30 -56 29 -75 -1
-30 -1 -30 -10 8 -5 21 -20 52 -34 68 -32 38 -34 104 -4 142 36 46 115 51 160
10z m2529 -2 c0 -8 -64 -42 -78 -42 -6 1 69 50 76 50 1 0 2 -4 2 -8z m-4535
-32 c-10 -11 -20 -18 -23 -15 -7 6 18 35 31 35 5 0 2 -9 -8 -20z m235 -12 c0
-6 -7 -5 -15 2 -8 7 -15 17 -15 22 0 6 7 5 15 -2 8 -7 15 -17 15 -22z m772 7
c0 -5 -5 -11 -11 -13 -6 -2 -11 4 -11 13 0 9 5 15 11 13 6 -2 11 -8 11 -13z
m3527 2 c-24 -19 -79 -47 -79 -40 0 9 56 41 74 42 5 1 7 0 5 -2z m-301 -18
c-2 -6 -8 -10 -13 -10 -5 0 -11 4 -13 10 -2 6 4 11 13 11 9 0 15 -5 13 -11z
m-4524 -23 c-18 -14 -18 -15 -1 -21 9 -4 17 -11 17 -16 0 -5 -11 -2 -25 7
l-25 16 23 18 c12 10 24 16 26 14 3 -2 -4 -11 -15 -18z m76 -11 c0 -6 -9 -16
-20 -23 -11 -7 -20 -8 -20 -3 0 6 8 14 18 20 16 9 16 10 0 16 -10 4 -18 11
-18 16 0 5 9 4 20 -3 11 -7 20 -17 20 -23z m359 -28 c-24 -19 -79 -44 -79 -37
0 10 72 51 79 44 2 -2 2 -5 0 -7z m-9 -38 c-34 -23 -70 -39 -70 -31 0 5 15 16
33 25 36 18 60 22 37 6z m4678 -10 c-2 -6 -8 -10 -13 -10 -5 0 -11 4 -13 10
-2 6 4 11 13 11 9 0 15 -5 13 -11z m-2988 -34 c-7 -9 -15 -13 -18 -10 -3 2 1
11 8 20 7 9 15 13 18 10 3 -2 -1 -11 -8 -20z m-556 -36 c-3 -5 -15 -14 -27
-20 -22 -12 -22 -12 -3 9 17 20 17 22 2 28 -9 3 -16 10 -16 15 0 5 11 2 25 -7
14 -9 22 -20 19 -25z m-74 16 c-11 -13 -10 -18 6 -30 10 -8 14 -15 8 -15 -6 0
-18 8 -27 18 -13 14 -14 21 -5 30 18 18 33 15 18 -3z m780 -53 c0 -10 -65 -42
-83 -42 -7 0 6 11 28 24 44 27 55 30 55 18z m-2529 -55 c-13 -13 -26 -3 -16
12 3 6 11 8 17 5 6 -4 6 -10 -1 -17z m2528 20 c-24 -19 -79 -44 -79 -37 0 11
49 39 69 40 8 0 12 -1 10 -3z m881 -37 c0 -5 -7 -10 -15 -10 -8 0 -15 5 -15
10 0 6 7 10 15 10 8 0 15 -4 15 -10z m1780 -25 c0 -8 -4 -15 -10 -15 -5 0 -10
7 -10 15 0 8 5 15 10 15 6 0 10 -7 10 -15z m-95 -80 c-14 -32 -27 -56 -30 -53
-3 2 7 33 22 67 15 35 29 59 31 53 1 -5 -9 -36 -23 -67z m-4561 39 c24 -23 24
-395 0 -418 -12 -13 -41 -16 -149 -16 -108 0 -137 3 -149 16 -13 12 -16 40
-16 143 l0 127 78 81 77 82 72 0 c52 1 76 -3 87 -15z m1639 -42 l57 -57 -160
-160 -160 -160 -115 115 -115 115 102 102 103 103 115 0 116 0 57 -58z m1539
-13 c49 -40 65 -89 45 -144 l-14 -40 65 -67 c44 -45 63 -71 59 -82 -11 -28
-32 -18 -97 47 l-63 64 -39 -14 c-45 -15 -97 -6 -136 25 -53 41 -58 147 -11
199 31 33 54 42 109 42 36 1 53 -5 82 -30z m-2814 4 c-16 -15 -16 -17 0 -29 9
-8 12 -14 6 -14 -6 0 -18 7 -25 16 -11 14 -10 18 6 30 26 19 33 18 13 -3z m71
-10 c7 -4 -21 -33 -31 -33 -6 0 -5 7 2 15 10 12 10 18 -1 33 -13 16 -13 16 6
2 11 -8 22 -16 24 -17z m645 -47 c-14 -31 -28 -55 -31 -52 -3 2 8 32 23 67 15
34 29 58 31 52 2 -5 -8 -35 -23 -67z m1504 62 c17 -17 17 -409 0 -426 -8 -8
-57 -12 -155 -12 -130 0 -143 2 -153 19 -6 12 -10 98 -10 210 0 159 3 192 16
205 12 13 41 16 153 16 93 0 141 -4 149 -12z m-1788 -53 c0 -8 -4 -15 -9 -15
-13 0 -22 16 -14 24 11 11 23 6 23 -9z m-1230 -10 c0 -8 -4 -15 -9 -15 -13 0
-22 16 -14 24 11 11 23 6 23 -9z m3203 -22 c-8 -3 -11 -14 -7 -29 4 -16 2 -24
-7 -24 -10 0 -10 -3 -1 -12 7 -7 12 -26 12 -42 -1 -26 -2 -28 -11 -13 -5 9 -8
21 -4 26 3 5 1 12 -5 16 -9 5 -7 32 6 73 2 6 9 12 16 11 10 0 10 -2 1 -6z m42
-19 c1 -10 4 -24 8 -31 4 -6 3 -14 -3 -18 -5 -3 -10 -17 -10 -30 0 -13 -5 -27
-11 -31 -8 -4 -9 1 -4 17 12 37 12 92 0 108 -8 11 -6 13 5 9 8 -3 15 -13 15
-24z m572 -26 c-18 -9 -18 -11 0 -31 12 -14 13 -18 3 -12 -38 21 -40 27 -17
45 12 10 24 16 27 13 3 -2 -3 -9 -13 -15z m62 -1 c8 -11 6 -18 -9 -32 -11 -10
-23 -16 -26 -12 -3 3 4 11 16 17 21 11 21 12 3 25 -10 8 -13 15 -7 15 6 0 17
-6 23 -13z m-1449 -18 c0 -5 -7 -9 -15 -9 -15 0 -20 12 -9 23 8 8 24 -1 24
-14z m-2437 -67 c-14 -34 -30 -62 -34 -62 -8 0 10 50 38 103 26 51 24 22 -4
-41z m4666 59 c11 -7 14 -45 15 -178 1 -167 1 -168 24 -171 18 -3 22 -8 16
-25 -3 -12 -9 -24 -11 -27 -7 -8 -627 -10 -639 -2 -6 4 -14 17 -18 29 -6 17
-2 22 16 25 23 3 23 4 25 172 1 126 5 171 15 177 18 12 539 11 557 0z m-3295
-37 c23 -23 23 -305 0 -328 -13 -14 -48 -16 -228 -16 -151 0 -215 3 -224 12
-17 17 -17 334 1 341 6 3 107 6 224 6 180 1 214 -1 227 -15z m-783 -48 c-6 -7
-9 -21 -5 -30 4 -9 1 -16 -6 -16 -10 0 -10 -3 0 -15 6 -8 9 -19 5 -25 -4 -6
-1 -17 5 -25 8 -10 9 -15 2 -15 -18 0 -24 19 -24 70 0 51 6 70 24 70 7 0 7 -5
-1 -14z m41 2 c0 -7 2 -17 2 -23 1 -5 6 -16 11 -24 5 -10 4 -16 -3 -19 -7 -2
-12 -14 -12 -27 0 -13 -4 -26 -9 -29 -5 -4 -6 9 -1 29 4 19 4 51 0 70 -4 20
-4 35 1 35 5 0 10 -6 11 -12z m1608 -58 c0 -5 -7 -10 -15 -10 -8 0 -15 5 -15
10 0 6 7 10 15 10 8 0 15 -4 15 -10z m95 -30 c-16 -18 -16 -20 -1 -26 9 -3 16
-10 16 -16 0 -5 -11 -1 -24 9 -22 17 -23 19 -9 36 9 9 21 17 26 17 6 0 2 -9
-8 -20z m59 1 c17 -19 17 -20 -6 -32 -21 -11 -22 -11 -9 4 11 14 11 20 1 32
-18 22 -6 18 14 -4z m-1654 -32 c0 -5 -7 -9 -15 -9 -15 0 -20 12 -9 23 8 8 24
-1 24 -14z m2631 -62 c-13 -13 -26 -3 -16 12 3 6 11 8 17 5 6 -4 6 -10 -1 -17z
m-1446 -17 c-9 -14 -9 -82 0 -110 5 -15 4 -20 -4 -16 -6 4 -11 17 -11 30 0 12
-5 27 -12 34 -9 9 -9 12 1 12 7 0 11 8 10 18 -3 30 1 42 12 42 5 0 7 -5 4 -10z
m41 -1 c10 -17 7 -110 -4 -121 -7 -7 -9 10 -6 53 2 42 -1 66 -9 71 -9 6 -9 8
0 8 6 0 15 -5 19 -11z m3179 -29 c-16 -18 -16 -20 -1 -26 9 -3 16 -10 16 -15
0 -5 -11 -2 -25 7 -24 16 -25 18 -9 35 10 11 22 19 27 19 6 0 2 -9 -8 -20z
m58 2 c13 -14 14 -21 5 -30 -7 -7 -16 -12 -22 -12 -6 0 -5 5 2 12 9 9 8 16 -5
30 -9 10 -12 18 -6 18 5 0 17 -8 26 -18z m-3573 -32 c0 -5 -7 -10 -15 -10 -8
0 -15 5 -15 10 0 6 7 10 15 10 8 0 15 -4 15 -10z m663 -15 c63 -30 93 -110 68
-178 -9 -22 -3 -33 55 -93 35 -38 62 -73 61 -79 -9 -28 -43 -13 -101 43 l-61
61 -40 -11 c-60 -16 -108 -4 -144 37 -36 41 -46 72 -37 119 17 90 117 141 199
101z m-2393 -20 c0 -8 -4 -15 -10 -15 -5 0 -10 7 -10 15 0 8 5 15 10 15 6 0
10 -7 10 -15z m2710 -10 c0 -8 -4 -15 -10 -15 -5 0 -10 7 -10 15 0 8 5 15 10
15 6 0 10 -7 10 -15z m1211 -40 c-11 -24 -21 -49 -21 -54 0 -6 -5 -13 -11 -17
-8 -4 -9 1 -4 16 14 45 47 111 52 106 3 -3 -4 -26 -16 -51z m1119 20 c0 -8 -4
-15 -10 -15 -5 0 -10 7 -10 15 0 8 5 15 10 15 6 0 10 -7 10 -15z m-1200 -15
c0 -5 -7 -10 -15 -10 -8 0 -15 5 -15 10 0 6 7 10 15 10 8 0 15 -4 15 -10z
m-3203 -21 c69 -26 105 -100 83 -173 l-12 -39 61 -61 c64 -65 77 -96 39 -96
-14 0 -46 23 -84 61 -54 54 -64 60 -82 50 -32 -17 -94 -13 -129 9 -41 24 -63
67 -63 120 0 56 27 99 75 121 46 21 72 23 112 8z m4804 -62 c-1 -12 -15 -9
-19 4 -3 6 1 10 8 8 6 -3 11 -8 11 -12z m-1989 -24 c16 -14 18 -33 18 -160 0
-80 -5 -153 -10 -164 -10 -18 -23 -19 -235 -19 -137 0 -226 4 -230 10 -3 5 -6
83 -6 171 0 122 3 164 13 170 7 5 107 9 222 9 181 0 212 -2 228 -17z m-3285
-168 c2 -88 -1 -166 -6 -173 -13 -21 -449 -22 -462 -1 -14 22 -11 313 3 327 9
9 71 12 238 10 l225 -3 2 -160z m3487 101 c-19 -15 -19 -15 1 -30 11 -8 16
-15 10 -15 -5 0 -18 6 -28 13 -16 13 -16 15 -2 30 9 9 21 16 28 16 6 0 2 -6
-9 -14z m62 0 c19 -15 19 -15 -1 -30 -11 -8 -24 -15 -30 -15 -5 0 -1 7 10 15
20 15 20 15 1 30 -11 8 -15 14 -10 14 6 0 19 -6 30 -14z m1505 -44 c25 -26 49
-54 53 -61 6 -9 -37 -59 -145 -167 -85 -85 -157 -154 -162 -154 -4 0 -57 50
-118 111 l-112 111 104 104 104 104 115 0 116 0 45 -48z m-4171 28 c0 -5 -7
-10 -15 -10 -8 0 -15 5 -15 10 0 6 7 10 15 10 8 0 15 -4 15 -10z m808 -26 l32
-6 0 -169 0 -169 25 -10 c18 -7 23 -14 18 -27 -4 -10 -11 -21 -17 -25 -6 -4
-149 -8 -318 -8 -265 0 -309 2 -322 16 -22 22 -20 44 4 44 19 0 20 7 21 123 2
190 4 218 19 227 17 10 490 14 538 4z m2264 -61 c16 -15 18 -35 18 -213 0
-169 -2 -199 -16 -211 -11 -9 -57 -14 -144 -17 -173 -5 -170 -8 -170 166 l0
127 83 83 84 82 63 0 c45 0 69 -5 82 -17z m-3098 -37 c-18 -14 -18 -15 -1 -21
9 -4 17 -12 17 -18 0 -5 -9 -2 -20 8 -19 17 -19 19 -3 37 9 10 19 16 21 13 3
-3 -3 -12 -14 -19z m59 -28 c-9 -10 -19 -16 -21 -13 -3 3 3 12 14 19 18 14 18
15 2 21 -10 4 -18 12 -18 18 0 5 9 2 20 -8 19 -17 19 -19 3 -37z m2535 34 c2
-7 -3 -12 -12 -12 -9 0 -16 7 -16 16 0 17 22 14 28 -4z m734 3 c0 -5 -5 -11
-11 -13 -6 -2 -11 4 -11 13 0 9 5 15 11 13 6 -2 11 -8 11 -13z m89 -27 c-4
-18 -4 -48 0 -65 3 -18 3 -33 -2 -33 -5 0 -9 11 -9 24 0 14 -5 28 -11 32 -8 4
-8 9 0 17 6 6 11 21 11 34 0 13 4 23 9 23 5 0 6 -15 2 -32z m51 3 c5 -37 -2
-101 -12 -101 -4 0 -4 15 -1 33 4 17 4 47 0 65 -4 17 -3 32 1 32 4 0 10 -13
12 -29z m-1636 -48 c-7 -16 -21 -46 -30 -67 -9 -22 -19 -37 -21 -34 -8 8 46
128 57 128 4 0 2 -12 -6 -27z m1794 12 c0 -8 -4 -15 -9 -15 -13 0 -22 16 -14
24 11 11 23 6 23 -9z m730 -45 c0 -5 -7 -10 -15 -10 -8 0 -15 5 -15 10 0 6 7
10 15 10 8 0 15 -4 15 -10z m-4755 -75 c-36 -86 -44 -78 -9 9 14 37 29 64 32
62 3 -3 -7 -35 -23 -71z m-245 15 c0 -5 -7 -10 -15 -10 -8 0 -15 5 -15 10 0 6
7 10 15 10 8 0 15 -4 15 -10z m-805 -85 c-14 -32 -27 -56 -30 -53 -3 2 7 33
22 67 15 35 29 59 31 53 1 -5 -9 -36 -23 -67z m3685 -10 c0 -8 -4 -15 -10 -15
-5 0 -10 7 -10 15 0 8 5 15 10 15 6 0 10 -7 10 -15z m2128 -4 c3 -8 -1 -12 -9
-9 -7 2 -15 10 -17 17 -3 8 1 12 9 9 7 -2 15 -10 17 -17z m-1768 -1 c0 -5 -7
-10 -15 -10 -8 0 -15 5 -15 10 0 6 7 10 15 10 8 0 15 -4 15 -10z m-3259 -19
c-21 -16 -22 -19 -6 -25 10 -3 15 -9 12 -13 -4 -3 -13 0 -22 7 -14 12 -14 15
1 31 10 11 22 19 28 19 6 0 0 -9 -13 -19z m67 -4 c9 -8 8 -13 -5 -23 -10 -7
-22 -13 -28 -13 -5 0 -2 4 8 10 18 10 18 11 0 32 -18 20 -5 17 25 -6z m582 8
c0 -8 -4 -15 -10 -15 -5 0 -10 7 -10 15 0 8 5 15 10 15 6 0 10 -7 10 -15z
m3580 -11 c0 -8 -4 -14 -10 -14 -5 0 -10 9 -10 21 0 11 5 17 10 14 6 -3 10
-13 10 -21z m-2483 -21 c-13 -23 -47 -103 -47 -112 0 -6 -5 -11 -11 -11 -6 0
-9 6 -6 13 38 90 51 117 59 117 5 0 7 -3 5 -7z m2593 -18 c-7 -8 -17 -15 -22
-15 -6 0 -5 7 2 15 7 8 17 15 22 15 6 0 5 -7 -2 -15z m723 -65 c-15 -35 -28
-59 -30 -53 -4 12 46 127 53 121 2 -3 -8 -34 -23 -68z m-771 31 c44 -39 47
-101 6 -149 -14 -17 -29 -45 -33 -61 -4 -19 -19 -38 -39 -51 -37 -22 -57 -27
-38 -8 7 7 12 40 12 79 0 59 -2 67 -21 72 -27 7 -22 42 6 42 18 0 21 -9 25
-90 l6 -90 4 84 c4 66 9 86 23 95 13 8 20 8 26 -3 12 -19 4 -38 -19 -44 -16
-4 -19 -14 -17 -60 2 -58 10 -66 22 -20 3 16 17 42 29 58 35 45 39 70 21 109
-46 96 -199 54 -182 -50 3 -19 15 -46 26 -60 20 -25 45 -94 37 -102 -2 -2 -10
14 -16 35 -7 21 -21 47 -31 58 -23 25 -34 75 -25 110 19 76 117 101 178 46z
m-2064 -8 c56 -35 59 -113 8 -174 -14 -17 -26 -38 -26 -48 0 -18 -18 -41 -32
-41 -5 0 -7 39 -6 88 3 82 4 87 26 90 17 3 22 -2 22 -18 0 -13 -8 -24 -20 -27
-17 -5 -20 -14 -20 -59 0 -30 5 -54 10 -54 6 0 10 11 10 24 0 13 14 40 30 61
38 48 40 92 4 134 -34 41 -88 43 -133 5 -40 -33 -42 -82 -6 -135 14 -20 28
-54 30 -75 5 -38 4 -38 -4 -6 -5 18 -20 49 -34 70 -39 57 -39 106 -2 151 36
42 89 48 143 14z m-2518 -38 c-7 -9 -15 -13 -18 -10 -3 2 1 11 8 20 7 9 15 13
18 10 3 -2 -1 -11 -8 -20z m3434 9 c14 -5 16 -31 16 -180 0 -167 1 -174 20
-174 23 0 28 -31 7 -48 -17 -14 -612 -15 -638 -1 -26 13 -25 49 1 49 19 0 20
7 20 168 0 117 4 172 12 180 9 9 85 12 279 12 147 0 274 -3 283 -6z m-3511
-18 c68 -28 88 -109 42 -164 -14 -17 -28 -44 -31 -62 -5 -22 -18 -39 -46 -56
-22 -14 -42 -23 -45 -20 -3 3 1 8 8 11 21 8 26 145 7 145 -20 0 -37 20 -31 36
7 19 39 18 47 -2 3 -9 7 -48 8 -87 l2 -72 5 85 c6 79 8 85 29 88 29 4 31 -33
2 -41 -17 -4 -20 -14 -20 -62 0 -35 4 -54 10 -50 6 3 10 15 10 25 0 10 12 32
26 49 36 43 42 98 15 133 -58 73 -171 41 -173 -50 -1 -18 12 -49 31 -78 17
-26 31 -59 30 -73 0 -23 -2 -22 -14 11 -7 20 -24 51 -37 68 -33 45 -31 101 6
139 25 26 38 33 79 40 4 0 22 -5 40 -13z m820 -44 l57 -57 -160 -160 -160
-160 -115 115 -115 115 102 102 103 103 115 0 116 0 57 -58z m1387 18 c0 -5
-7 -10 -15 -10 -8 0 -15 5 -15 10 0 6 7 10 15 10 8 0 15 -4 15 -10z m320 -109
c4 -83 3 -94 -13 -103 -10 -5 -21 -7 -24 -4 -3 3 2 8 11 12 13 5 16 20 16 74
0 59 -2 68 -20 73 -12 3 -20 14 -20 27 0 16 5 21 23 18 21 -3 22 -9 27 -97z
m-896 52 c-9 -21 -21 -50 -27 -65 -6 -16 -15 -28 -19 -28 -4 0 5 29 20 65 15
36 30 65 35 65 4 0 0 -17 -9 -37z m-468 -2 c-17 -18 -17 -20 1 -30 14 -8 15
-10 3 -11 -29 0 -42 22 -23 42 9 10 21 18 26 18 6 0 2 -9 -7 -19z m58 0 c16
-17 15 -19 -9 -35 -14 -9 -25 -12 -25 -7 0 5 7 12 16 15 15 6 15 8 -1 26 -10
11 -14 20 -8 20 5 0 17 -8 27 -19z m3726 -36 c0 -8 -4 -15 -10 -15 -5 0 -10 7
-10 15 0 8 5 15 10 15 6 0 10 -7 10 -15z m-470 -20 c-7 -9 -15 -13 -18 -10 -3
2 1 11 8 20 7 9 15 13 18 10 3 -2 -1 -11 -8 -20z m690 10 c-6 -8 -9 -19 -5
-26 4 -6 1 -15 -6 -20 -12 -8 -12 -10 0 -18 8 -5 11 -16 8 -24 -3 -8 0 -20 6
-26 8 -8 8 -11 0 -11 -19 0 -25 19 -25 70 0 51 6 70 24 70 7 0 6 -5 -2 -15z
m44 -1 c3 -9 3 -20 0 -26 -4 -6 0 -14 7 -19 11 -6 11 -11 1 -21 -6 -6 -12 -22
-12 -35 0 -13 -4 -23 -9 -23 -5 0 -5 15 -1 35 4 19 4 51 0 70 -8 35 2 49 14
19z m-3042 -6 c-9 -9 -8 -16 5 -30 9 -10 12 -18 6 -18 -5 0 -18 9 -27 19 -17
18 -17 20 1 30 24 14 30 14 15 -1z m59 1 c20 -10 20 -11 3 -30 -9 -10 -22 -19
-27 -19 -6 0 -2 9 7 19 17 18 17 20 -1 30 -24 14 -8 14 18 0z m429 -14 c7 -8
8 -15 2 -15 -5 0 -15 7 -22 15 -7 8 -8 15 -2 15 5 0 15 -7 22 -15z m-609 -35
c18 -10 19 -23 19 -220 0 -189 -2 -210 -17 -219 -23 -11 -262 -11 -285 1 -16
8 -18 29 -18 218 0 188 2 210 18 219 23 14 258 14 283 1z m3250 -23 c-13 -13
-26 -3 -16 12 3 6 11 8 17 5 6 -4 6 -10 -1 -17z m-5441 -2 c-7 -8 -17 -15 -22
-15 -6 0 -5 7 2 15 7 8 17 15 22 15 6 0 5 -7 -2 -15z m1620 -5 c0 -5 -7 -10
-15 -10 -8 0 -15 5 -15 10 0 6 7 10 15 10 8 0 15 -4 15 -10z m3150 2 c0 -8
-64 -42 -78 -42 -6 1 69 50 76 50 1 0 2 -4 2 -8z m-2050 -17 c0 -6 -76 -45
-87 -45 -10 1 69 50 80 50 4 0 7 -2 7 -5z m1245 -69 c-14 -32 -28 -56 -31 -53
-3 3 7 33 22 68 15 34 29 58 31 52 2 -5 -8 -36 -22 -67z m795 43 c-34 -23 -70
-39 -70 -31 0 5 15 16 33 25 36 18 60 22 37 6z m-2050 -14 c0 -7 -58 -35 -72
-35 -7 1 3 9 22 20 35 19 50 24 50 15z m-3000 -30 c-10 -12 -10 -18 1 -32 13
-15 12 -15 -8 -4 -26 13 -28 22 -11 39 17 17 33 15 18 -3z m70 -13 c0 -11 -22
-32 -33 -32 -5 0 -4 7 3 15 10 12 10 18 -1 32 -13 15 -12 15 9 4 12 -6 22 -15
22 -19z m360 24 c0 -8 -71 -48 -76 -43 -3 3 11 15 33 26 42 22 43 23 43 17z
m1340 -52 c-5 -19 -4 -49 1 -67 9 -30 4 -53 -6 -26 -12 35 -10 129 4 129 5 0
5 -15 1 -36z m52 4 c2 -52 -3 -92 -12 -102 -6 -5 -8 3 -7 20 1 16 7 32 12 37
7 5 7 10 0 15 -12 8 -14 62 -3 62 4 0 9 -15 10 -32z m-1392 14 c0 -10 -69 -47
-76 -40 -2 3 12 15 33 26 45 25 43 24 43 14z m350 -67 c0 -8 -4 -15 -10 -15
-5 0 -10 7 -10 15 0 8 5 15 10 15 6 0 10 -7 10 -15z m1930 -15 c0 -5 -7 -10
-15 -10 -8 0 -15 5 -15 10 0 6 7 10 15 10 8 0 15 -4 15 -10z m2150 -25 c-4
-19 -4 -51 0 -70 4 -20 4 -35 -1 -35 -5 0 -9 14 -9 30 0 17 -5 30 -11 30 -8 0
-8 4 0 14 7 8 11 20 10 28 -3 23 1 38 10 38 5 0 5 -15 1 -35z m52 -33 c0 -53
-6 -72 -24 -72 -7 0 -7 4 0 13 6 7 9 39 8 70 -2 37 0 55 7 48 5 -5 9 -32 9
-59z m917 54 c12 -8 16 -301 5 -330 -5 -14 -35 -16 -228 -16 -159 0 -225 3
-234 12 -18 18 -17 312 1 330 10 10 62 13 229 12 119 -1 221 -5 227 -8z
m-1175 -31 c-19 -15 -19 -15 0 -30 25 -19 6 -20 -20 -1 -19 15 -19 15 1 30 11
8 24 16 29 16 6 0 1 -7 -10 -15z m60 -4 c17 -19 17 -20 -3 -30 -28 -16 -38
-14 -15 3 19 15 19 15 -1 30 -11 8 -15 16 -9 16 6 0 19 -9 28 -19z m-4704 -26
c0 -8 -4 -15 -9 -15 -13 0 -22 16 -14 24 11 11 23 6 23 -9z m6012 -20 c0 -5
-5 -11 -11 -13 -6 -2 -11 4 -11 13 0 9 5 15 11 13 6 -2 11 -8 11 -13z m-2730
-40 c0 -5 -5 -11 -11 -13 -6 -2 -11 4 -11 13 0 9 5 15 11 13 6 -2 11 -8 11
-13z m1850 0 c0 -5 -5 -11 -11 -13 -6 -2 -11 4 -11 13 0 9 5 15 11 13 6 -2 11
-8 11 -13z m-3284 -47 c9 -9 12 -70 12 -215 0 -190 -1 -203 -19 -213 -31 -16
-276 -13 -290 4 -8 9 -12 61 -12 146 l-1 133 78 78 79 79 70 0 c42 0 76 -5 83
-12z m1828 -3 c-20 -15 -20 -15 0 -30 23 -17 11 -20 -16 -3 -18 11 -18 14 -3
30 9 10 21 18 27 18 6 0 2 -7 -8 -15z m55 5 c25 -14 24 -27 -3 -41 -21 -11
-22 -11 -9 5 12 14 12 18 -5 31 -22 17 -11 20 17 5z m608 -9 c7 -11 10 -97 8
-215 -2 -162 -5 -198 -17 -206 -23 -15 -283 -13 -298 2 -17 17 -17 409 0 426
8 8 57 12 155 12 129 0 143 -2 152 -19z m-2317 -6 c0 -5 -5 -11 -11 -13 -6 -2
-11 4 -11 13 0 9 5 15 11 13 6 -2 11 -8 11 -13z m-894 -172 c2 -167 3 -173 23
-173 16 0 20 -5 17 -27 l-3 -28 -319 -3 c-227 -2 -323 1 -332 9 -21 18 -17 49
6 49 19 0 20 7 20 168 0 93 3 172 7 175 4 4 135 6 292 5 l286 -3 3 -172z
m-708 152 c0 -8 -4 -15 -10 -15 -5 0 -10 7 -10 15 0 8 5 15 10 15 6 0 10 -7
10 -15z m4553 -52 c18 -9 37 -32 49 -61 18 -41 19 -51 9 -93 l-12 -46 60 -63
c64 -66 72 -84 44 -94 -12 -5 -35 12 -82 58 -51 50 -70 63 -81 56 -8 -5 -37
-10 -63 -10 -84 0 -137 56 -137 144 0 36 6 52 31 81 48 55 111 64 182 28z
m-3582 -104 c-16 -35 -30 -59 -30 -52 -1 18 48 127 54 121 3 -3 -8 -34 -24
-69z m2449 61 c0 -5 -7 -10 -15 -10 -8 0 -15 5 -15 10 0 6 7 10 15 10 8 0 15
-4 15 -10z m-792 -16 c21 -14 22 -21 22 -168 0 -105 -4 -156 -12 -164 -9 -9
-75 -12 -233 -12 l-222 0 -12 24 c-10 17 -12 64 -9 166 3 126 5 143 23 156 29
22 412 20 443 -2z m-2818 -64 c0 -5 -7 -10 -15 -10 -8 0 -15 5 -15 10 0 6 7
10 15 10 8 0 15 -4 15 -10z m3535 -80 c30 -30 54 -58 53 -62 -2 -4 -73 -78
-158 -163 l-154 -156 -115 116 -116 115 99 99 c111 111 99 106 259 106 l77 -1
55 -54z m-1305 5 c-16 -42 -51 -107 -56 -103 -6 6 49 128 58 128 4 0 3 -11 -2
-25z m-355 -29 c-18 -13 -18 -13 1 -24 10 -6 17 -13 14 -15 -3 -3 -14 1 -24 9
-19 13 -19 14 -1 34 10 11 21 18 23 15 3 -3 -3 -11 -13 -19z m75 -17 c0 -5
-10 -14 -22 -20 -23 -12 -23 -12 -4 9 17 20 17 22 2 28 -9 3 -16 11 -16 17 0
5 9 2 20 -8 11 -10 20 -22 20 -26z m3240 -9 c0 -5 -7 -10 -15 -10 -8 0 -15 5
-15 10 0 6 7 10 15 10 8 0 15 -4 15 -10z m137 -21 c-18 -10 -18 -11 0 -31 18
-21 18 -21 -4 -9 -12 6 -24 15 -28 20 -5 10 22 30 40 30 6 0 2 -4 -8 -10z m57
-30 c-9 -10 -22 -19 -28 -19 -6 0 -2 7 8 15 17 13 17 17 5 31 -13 16 -12 16 9
5 23 -12 23 -13 6 -32z m-984 16 c0 -8 -4 -15 -10 -15 -5 0 -10 7 -10 15 0 8
5 15 10 15 6 0 10 -7 10 -15z m1170 -60 c0 -8 -4 -15 -10 -15 -5 0 -10 7 -10
15 0 8 5 15 10 15 6 0 10 -7 10 -15z m-5412 -73 c2 -7 -3 -12 -12 -12 -9 0
-16 7 -16 16 0 17 22 14 28 -4z m4203 -24 c-4 -18 -4 -48 0 -65 3 -18 3 -33
-2 -33 -5 0 -9 11 -9 24 0 14 -5 28 -10 31 -8 5 -8 11 0 20 6 7 10 17 9 21 -3
19 1 34 10 34 5 0 6 -15 2 -32z m51 1 c7 -44 -5 -92 -22 -97 -12 -3 -12 -2 -1
6 8 6 11 18 6 31 -4 14 -2 21 6 21 10 0 10 3 2 11 -6 6 -9 18 -6 26 3 8 0 19
-8 24 -11 7 -11 9 2 9 11 0 18 -11 21 -31z m379 -50 c-16 -35 -30 -59 -30 -52
-1 18 48 127 54 121 3 -3 -8 -34 -24 -69z m-4281 0 c0 -5 -7 -9 -15 -9 -15 0
-20 12 -9 23 8 8 24 -1 24 -14z m1005 -14 c-1 -14 -4 -28 -8 -31 -4 -4 -4 -12
0 -17 9 -15 10 -57 2 -57 -10 0 -17 61 -11 98 6 38 18 43 17 7z m46 13 c1 -7
1 -17 0 -22 -1 -4 3 -14 9 -21 8 -9 8 -15 0 -20 -5 -3 -10 -17 -10 -31 0 -13
-4 -24 -9 -24 -5 0 -5 15 -2 33 4 17 4 47 0 65 -4 17 -3 32 2 32 5 0 10 -6 10
-12z m1981 -15 c-3 -16 -10 -31 -16 -35 -8 -6 -8 -8 0 -8 7 0 14 -13 16 -30 3
-17 1 -30 -4 -30 -4 0 -8 11 -8 24 0 14 -5 28 -10 31 -8 5 -7 11 0 20 7 8 9
19 5 25 -7 11 2 30 14 30 5 0 6 -12 3 -27z m51 -7 c7 -42 -4 -89 -21 -92 -7
-1 -8 0 -2 3 5 2 7 16 4 29 -4 15 -2 24 6 24 6 0 8 5 4 12 -10 15 -12 58 -3
58 3 0 9 -16 12 -34z m-2273 9 c0 -8 -7 -15 -15 -15 -16 0 -20 12 -8 23 11 12
23 8 23 -8z m-1280 -13 c0 -13 -12 -22 -22 -16 -10 6 -1 24 13 24 5 0 9 -4 9
-8z m2481 -35 c-13 -13 -26 -3 -16 12 3 6 11 8 17 5 6 -4 6 -10 -1 -17z m1179
-27 c0 -5 -7 -10 -15 -10 -8 0 -15 5 -15 10 0 6 7 10 15 10 8 0 15 -4 15 -10z
m1850 -15 c0 -8 -4 -15 -10 -15 -5 0 -10 7 -10 15 0 8 5 15 10 15 6 0 10 -7
10 -15z m-2630 -10 c0 -8 -4 -15 -10 -15 -5 0 -10 7 -10 15 0 8 5 15 10 15 6
0 10 -7 10 -15z m1632 0 c0 -5 -5 -11 -11 -13 -6 -2 -11 4 -11 13 0 9 5 15 11
13 6 -2 11 -8 11 -13z m-532 -30 c20 -24 6 -28 -15 -5 -10 11 -13 20 -8 20 6
0 16 -7 23 -15z m225 -5 c-10 -11 -20 -18 -23 -15 -7 6 18 35 31 35 5 0 2 -9
-8 -20z m-4214 -59 c-8 -5 -11 -16 -6 -30 4 -12 2 -21 -4 -21 -12 0 -15 43 -4
53 3 4 11 7 17 7 6 0 5 -4 -3 -9z"/>
<path d="M882 3967 l-52 -53 75 -74 c41 -41 75 -79 75 -85 0 -5 -35 25 -78 68
l-79 78 -39 -35 -39 -35 108 -108 107 -108 152 152 151 151 -48 46 c-26 25
-51 46 -54 46 -4 0 -31 -23 -59 -52 l-52 -52 -58 57 -58 57 -52 -53z m-43
-168 c-19 -12 -24 -2 -8 17 9 11 14 13 17 4 3 -7 -2 -16 -9 -21z m81 -56 c0
-8 -4 -11 -10 -8 -5 3 -10 1 -10 -5 0 -8 10 -10 28 -6 15 3 21 3 14 0 -6 -3
-10 -10 -7 -14 3 -5 0 -12 -6 -16 -8 -4 -9 -3 -5 4 4 7 1 12 -8 12 -21 0 -30
18 -16 35 8 10 8 15 -1 21 -7 4 -15 2 -17 -4 -2 -7 -8 -12 -14 -12 -6 0 -5 6
2 15 17 20 5 32 -15 15 -18 -15 -20 1 -3 18 9 9 18 6 40 -15 15 -15 28 -33 28
-40z m105 -31 c-6 -7 -35 18 -35 31 0 5 9 2 20 -8 11 -10 18 -20 15 -23z m-66
-18 c-10 -13 -10 -17 2 -25 9 -5 10 -9 2 -9 -19 0 -26 20 -13 35 7 8 15 15 17
15 3 0 0 -7 -8 -16z"/>
<path d="M966 4008 c3 -7 24 -28 46 -47 l39 -34 47 46 47 47 -92 0 c-70 0 -91
-3 -87 -12z"/>
<path d="M3996 4014 c-3 -8 -6 -85 -6 -170 0 -130 2 -154 15 -154 13 0 15 24
15 155 l0 155 28 -1 c23 -2 24 -2 5 -6 -23 -4 -23 -7 -23 -154 l0 -149 245 0
245 0 0 150 0 150 -182 3 -183 2 187 3 187 2 3 -155 c4 -216 23 -206 23 13 l0
167 -276 3 c-246 2 -277 1 -283 -14z m424 -179 l0 -125 -145 0 -145 0 0 125 0
125 145 0 145 0 0 -125z"/>
<path d="M4140 3938 c0 -5 61 -8 135 -8 74 0 135 3 135 8 0 4 -61 7 -135 7
-74 0 -135 -3 -135 -7z"/>
<path d="M4140 3819 l0 -99 135 0 135 0 0 100 0 101 -135 -2 -135 -1 0 -99z
m103 64 c-13 -2 -35 -2 -50 0 -16 2 -5 4 22 4 28 0 40 -2 28 -4z m35 -30 c-21
-2 -57 -2 -80 0 -24 2 -7 4 37 4 44 0 63 -2 43 -4z m-25 -30 c-18 -2 -48 -2
-65 0 -18 2 -4 4 32 4 36 0 50 -2 33 -4z m-15 -30 c-16 -2 -40 -2 -55 0 -16 2
-3 4 27 4 30 0 43 -2 28 -4z m55 -30 c-23 -2 -64 -2 -90 0 -26 2 -7 3 42 3 50
0 71 -1 48 -3z"/>
<path d="M3966 3672 c-9 -2 -15 -9 -13 -15 3 -9 89 -13 317 -15 291 -2 349 2
328 24 -7 6 -600 12 -632 6z"/>
<path d="M1567 3993 c-4 -3 -7 -80 -7 -170 0 -138 2 -163 15 -163 13 0 15 24
15 160 l0 160 33 -1 c30 -2 30 -2 5 -6 l-28 -4 0 -155 0 -154 245 0 245 0 0
155 0 155 -177 3 -178 2 183 3 182 2 0 -160 c0 -137 2 -160 15 -160 13 0 15
23 13 168 l-3 167 -276 3 c-151 1 -278 -1 -282 -5z m423 -183 c0 -72 -4 -120
-10 -121 -5 -1 -17 -1 -25 -1 -8 0 -69 0 -135 1 l-120 1 0 120 0 120 145 0
145 0 0 -120z"/>
<path d="M1710 3911 c0 -13 257 -14 265 -1 4 6 -42 10 -129 10 -78 0 -136 -4
-136 -9z"/>
<path d="M1710 3795 l0 -95 135 0 135 0 0 95 0 95 -135 0 -135 0 0 -95z m103
58 c-13 -2 -35 -2 -50 0 -16 2 -5 4 22 4 28 0 40 -2 28 -4z m64 -27 c3 -3 -27
-6 -68 -5 -41 0 -66 3 -57 7 21 9 116 7 125 -2z m-27 -28 c0 -5 -25 -8 -55 -8
-30 0 -55 4 -55 8 0 5 25 8 55 8 30 0 55 -4 55 -8z m-25 -28 c-8 -12 -85 -10
-85 2 0 4 21 8 46 8 28 0 43 -4 39 -10z m75 -28 c0 -13 -148 -14 -155 -2 -4 6
24 10 74 10 45 0 81 -4 81 -8z"/>
<path d="M1520 3641 c0 -6 6 -13 12 -18 7 -4 148 -8 312 -10 292 -3 326 0 326
28 0 5 -145 9 -325 9 -196 0 -325 -4 -325 -9z"/>
<path d="M2930 3942 c0 -40 -5 -73 -12 -80 -7 -7 -39 -12 -75 -12 l-63 0 0
-75 0 -75 108 -2 107 -2 -110 -5 -110 -6 4 -45 c1 -25 5 -48 8 -52 8 -14 268
-9 281 4 9 9 12 68 12 205 0 221 4 213 -94 213 l-56 0 0 -68z"/>
<path d="M2850 3925 l-64 -65 62 0 c72 0 75 3 70 79 l-3 52 -65 -66z"/>
<path d="M4950 3865 l-53 -54 96 -96 c54 -53 97 -100 97 -103 0 -4 -45 38
-100 93 l-100 99 -40 -39 -40 -39 105 -104 c105 -105 105 -105 127 -86 30 27
228 225 257 257 l25 27 -49 50 -49 50 -58 -57 -58 -57 -53 57 -54 56 -53 -54z
m-37 -152 c-5 -12 -2 -15 10 -10 22 8 21 4 -3 -18 -20 -18 -21 -18 -14 0 6 15
4 17 -9 12 -20 -8 -22 -1 -4 18 17 20 28 19 20 -2z m55 -44 c3 -8 1 -11 -3 -7
-5 4 -15 2 -24 -5 -14 -10 -14 -10 -4 4 7 9 9 19 5 24 -4 4 -1 6 7 3 8 -2 17
-11 19 -19z m12 -29 c-16 -10 -8 -14 23 -11 22 3 22 -2 -5 -25 -12 -10 -19
-14 -16 -9 3 6 0 16 -8 23 -8 7 -14 10 -14 6 0 -4 -3 -4 -7 -1 -3 4 2 14 13
21 10 8 21 12 24 10 2 -3 -2 -9 -10 -14z"/>
<path d="M5063 3873 l47 -48 47 48 48 47 -95 0 -95 0 48 -47z"/>
<path d="M123 3834 c-7 -3 -13 -12 -13 -20 0 -12 30 -14 172 -14 94 0 169 -3
165 -6 -3 -3 -80 -5 -170 -4 -143 1 -165 -1 -171 -15 -10 -26 -7 -221 4 -250
l10 -25 217 2 218 3 3 154 c2 100 -1 158 -8 166 -9 11 -59 14 -213 14 -111 0
-208 -3 -214 -5z m247 -113 c0 -24 -52 -171 -60 -171 -6 0 -10 5 -10 10 0 24
52 170 61 170 5 0 9 -4 9 -9z m-90 -37 c0 -3 -10 -14 -22 -25 l-23 -19 25 -19
c14 -11 22 -23 18 -26 -7 -8 -78 32 -78 43 0 10 54 51 68 52 6 0 12 -3 12 -6z
m157 -16 c18 -13 33 -25 33 -28 0 -3 -16 -16 -35 -29 -41 -28 -62 -19 -25 11
l25 20 -22 15 c-22 15 -31 33 -16 33 4 0 22 -10 40 -22z"/>
<path d="M2282 3450 c-66 -41 -78 -131 -24 -191 63 -70 176 -49 212 39 46 110
-84 215 -188 152z m106 -11 c17 -6 38 -21 46 -34 27 -41 16 -135 -16 -135 -6
0 -4 8 5 18 10 10 17 35 17 56 0 51 -36 86 -88 86 -93 0 -126 -115 -46 -162
19 -11 33 -23 30 -25 -9 -9 -64 31 -75 54 -25 54 -9 102 42 133 37 23 43 24
85 9z m2 -189 c0 -5 -10 -10 -22 -10 -19 0 -20 2 -8 10 19 13 30 13 30 0z"/>
<path d="M2446 3243 c-7 -7 112 -133 126 -133 21 0 2 31 -50 83 -59 59 -64 62
-76 50z"/>
<path d="M5566 3362 c-3 -6 -1 -14 5 -17 15 -10 25 3 12 16 -7 7 -13 7 -17 1z"/>
<path d="M5635 3359 c-10 -15 3 -25 16 -12 7 7 7 13 1 17 -6 3 -14 1 -17 -5z"/>
<path d="M4490 3346 c0 -85 -11 -96 -96 -96 l-64 0 0 -75 0 -74 113 -4 112 -3
-112 -2 -113 -2 0 -36 c0 -71 5 -74 148 -74 70 0 133 4 140 9 10 6 13 53 12
206 0 108 -3 201 -6 206 -3 5 -34 9 -70 9 l-64 0 0 -64z m13 -293 c-7 -2 -13
-11 -13 -18 0 -7 6 -16 13 -18 9 -4 9 -6 0 -6 -6 -1 -15 4 -18 9 -9 15 2 40
17 39 10 0 10 -2 1 -6z m77 -3 c-10 -6 -11 -10 -2 -10 6 0 12 -7 12 -16 0 -19
-25 -13 -26 7 -1 20 5 29 19 29 7 0 6 -4 -3 -10z"/>
<path d="M4407 3332 c-31 -32 -57 -61 -57 -65 0 -14 98 -7 114 9 17 16 23 114
8 114 -4 0 -33 -26 -65 -58z"/>
<path d="M1176 3252 c-3 -6 -1 -14 5 -17 15 -10 25 3 12 16 -7 7 -13 7 -17 1z"/>
<path d="M1245 3249 c-10 -15 3 -25 16 -12 7 7 7 13 1 17 -6 3 -14 1 -17 -5z"/>
<path d="M401 3295 c-94 -80 -40 -225 83 -225 39 0 52 5 84 34 34 32 37 38 37
91 0 53 -3 59 -37 91 -32 29 -45 34 -87 34 -38 0 -56 -6 -80 -25z m129 -10
c16 -8 34 -24 40 -34 15 -29 12 -93 -7 -116 l-16 -20 8 20 c38 96 -17 172
-102 144 -73 -24 -83 -128 -16 -159 32 -15 43 -30 22 -30 -6 0 -26 15 -45 34
-41 41 -46 89 -13 130 36 46 80 56 129 31z"/>
<path d="M580 3087 c0 -21 117 -131 125 -117 5 7 -15 35 -51 71 -59 60 -74 69
-74 46z"/>
<path d="M3590 3310 c-10 -19 -7 -20 167 -23 l178 -2 -177 -3 -178 -2 0 -126
c0 -69 5 -134 10 -145 10 -18 23 -19 205 -19 106 0 205 4 220 10 l26 10 -3
157 -3 158 -217 3 c-208 2 -218 2 -228 -18z m260 -97 c0 -19 -55 -173 -62
-173 -13 0 -10 21 13 91 11 35 22 70 25 77 4 13 24 17 24 5z m-109 -57 c-21
-23 -21 -23 -1 -41 11 -10 17 -22 14 -26 -5 -9 -25 -1 -59 26 -20 16 -19 17
13 46 38 34 65 29 33 -5z m183 1 l29 -20 -34 -28 c-19 -16 -37 -29 -41 -29
-16 0 -7 22 14 40 l22 17 -22 14 c-12 8 -22 20 -22 27 0 14 7 11 54 -21z"/>
<path d="M1633 3274 c-20 -8 -18 -397 1 -413 9 -8 57 -11 147 -9 l134 3 0 210
0 210 -135 2 c-74 1 -141 -1 -147 -3z m267 -21 c0 -5 -54 -6 -120 -5 l-120 4
0 -166 0 -166 55 -1 c30 -1 64 -1 75 -1 11 0 38 0 60 1 l39 1 4 128 3 127 -1
-135 0 -135 -119 -3 c-85 -2 -122 1 -127 9 -9 15 -12 309 -3 332 5 15 23 17
130 17 68 0 124 -3 124 -7z m-142 -50 c-16 -2 -40 -2 -55 0 -16 2 -3 4 27 4
30 0 43 -2 28 -4z m40 -30 c-21 -2 -57 -2 -80 0 -24 2 -7 4 37 4 44 0 63 -2
43 -4z m-25 -30 c-18 -2 -48 -2 -65 0 -18 2 -4 4 32 4 36 0 50 -2 33 -4z m-15
-30 c-16 -2 -40 -2 -55 0 -16 2 -3 4 27 4 30 0 43 -2 28 -4z m55 -30 c-23 -2
-64 -2 -90 0 -26 2 -7 3 42 3 50 0 71 -1 48 -3z m-40 -30 c-18 -2 -48 -2 -65
0 -18 2 -4 4 32 4 36 0 50 -2 33 -4z m-15 -30 c-16 -2 -40 -2 -55 0 -16 2 -3
4 27 4 30 0 43 -2 28 -4z m40 -30 c-21 -2 -57 -2 -80 0 -24 2 -7 4 37 4 44 0
63 -2 43 -4z"/>
<path d="M4902 3238 c-13 -13 -18 -371 -6 -402 5 -14 28 -16 149 -16 l143 0 5
43 c3 23 4 115 3 205 -1 133 -4 164 -16 172 -23 15 -263 13 -278 -2z m265 -21
c3 -4 -48 -7 -115 -7 l-122 0 0 -165 0 -165 115 0 114 0 4 133 3 132 2 -137 2
-138 -125 0 -125 0 0 174 c0 158 2 175 17 178 33 6 223 2 230 -5z m-117 -49
c0 -5 -20 -8 -45 -8 -25 0 -45 3 -45 8 0 4 20 7 45 7 25 0 45 -3 45 -7z m50
-29 c0 -5 -31 -9 -70 -9 -39 0 -70 4 -70 10 0 5 31 9 70 9 39 -1 70 -5 70 -10z
m-30 -29 c0 -5 -25 -10 -55 -10 -30 0 -55 5 -55 10 0 6 25 10 55 10 30 0 55
-4 55 -10z m-20 -28 c0 -4 -17 -6 -37 -4 -59 5 -63 10 -10 11 26 1 47 -3 47
-7z m70 -30 c0 -5 -36 -8 -80 -8 -44 1 -80 4 -80 9 0 4 36 7 80 7 44 0 80 -4
80 -8z m-72 -29 c-15 -2 -42 -2 -60 0 -18 2 -6 4 27 4 33 0 48 -2 33 -4z m-15
-30 c-13 -2 -35 -2 -50 0 -16 2 -5 4 22 4 28 0 40 -2 28 -4z m35 -30 c-21 -2
-55 -2 -75 0 -21 2 -4 4 37 4 41 0 58 -2 38 -4z"/>
<path d="M3002 3088 c5 -15 28 -23 28 -10 0 5 -7 13 -16 16 -10 4 -14 1 -12
-6z"/>
<path d="M3067 3093 c-12 -11 -8 -23 8 -23 8 0 15 7 15 15 0 16 -12 20 -23 8z"/>
<path d="M950 2716 c0 -85 -11 -96 -96 -96 l-64 0 0 -75 0 -74 113 -4 112 -3
-112 -2 -113 -2 0 -39 c0 -65 13 -71 155 -71 96 0 127 3 138 15 12 12 15 50
16 196 0 102 -4 190 -10 200 -8 16 -22 19 -74 19 l-65 0 0 -64z m13 -293 c-21
-8 -16 -36 5 -28 14 5 15 4 5 -6 -10 -10 -16 -10 -24 -2 -14 14 -5 43 13 42
10 0 10 -2 1 -6z m66 -8 c-15 -9 -18 -14 -9 -17 10 -3 9 -6 -4 -11 -9 -4 -15
-3 -11 2 3 5 1 12 -5 16 -19 12 -10 22 21 22 30 0 30 -1 8 -12z"/>
<path d="M867 2700 c-31 -33 -57 -62 -57 -64 0 -12 102 -3 115 11 16 15 21
113 7 113 -5 0 -34 -27 -65 -60z"/>
<path d="M2470 2772 c0 -4 19 -27 43 -49 l42 -42 48 44 c26 25 47 47 47 49 0
3 -40 5 -90 5 -49 0 -90 -3 -90 -7z"/>
<path d="M2397 2722 c-26 -26 -47 -52 -47 -56 0 -5 26 -34 58 -65 32 -31 64
-65 72 -76 7 -11 -22 15 -66 58 l-80 77 -38 -39 -39 -40 108 -105 107 -105
151 150 150 151 -51 51 -52 52 -53 -53 c-29 -28 -56 -52 -61 -52 -4 0 -28 23
-53 50 -25 28 -48 50 -52 50 -4 0 -28 -22 -54 -48z m-39 -149 c-2 -11 2 -17
11 -15 18 4 61 -37 61 -59 0 -10 9 -19 20 -21 21 -3 21 -3 -1 -16 -11 -8 -19
-10 -16 -5 7 11 -19 33 -29 25 -5 -4 -2 1 5 10 20 27 3 43 -22 21 -22 -18 -22
-18 -4 4 14 16 15 23 6 29 -7 4 -18 -1 -26 -12 -14 -19 -14 -19 -11 1 2 12 -2
19 -10 17 -10 -2 -10 2 0 18 16 25 20 25 16 3z"/>
<path d="M4113 2718 c-59 -42 -71 -117 -28 -180 49 -72 170 -65 210 12 19 37
19 93 -1 131 -29 58 -124 77 -181 37z m112 -12 c60 -25 84 -119 40 -156 -20
-16 -19 -5 1 26 23 34 5 96 -31 112 -62 29 -111 10 -134 -51 -14 -37 9 -89 46
-106 14 -6 23 -15 19 -18 -10 -10 -60 31 -75 62 -20 42 -4 94 38 122 40 27 50
28 96 9z"/>
<path d="M4285 2510 c-10 -16 112 -137 125 -124 7 7 -9 29 -51 72 -34 34 -63
62 -65 62 -1 0 -6 -5 -9 -10z"/>
<path d="M3392 2722 c-9 -7 -12 -56 -10 -213 l3 -204 145 0 145 0 3 199 c2
138 -1 203 -9 212 -9 11 -42 14 -138 14 -69 0 -132 -4 -139 -8z m258 -24 c0
-8 -27 -9 -97 -5 -154 10 -143 24 -143 -169 l0 -164 115 0 115 0 0 125 c0 69
4 125 8 125 9 0 14 -215 6 -242 -5 -16 -20 -18 -130 -18 l-124 0 0 173 c0 96
3 177 7 180 12 13 243 8 243 -5z m-120 -48 c0 -5 -20 -10 -45 -10 -25 0 -45 5
-45 10 0 6 20 10 45 10 25 0 45 -4 45 -10z m30 -29 c-14 -4 -47 -5 -75 -1 -47
7 -45 7 25 8 48 0 66 -2 50 -7z m-27 -28 c-18 -2 -48 -2 -65 0 -18 2 -4 4 32
4 36 0 50 -2 33 -4z m-20 -30 c-13 -2 -35 -2 -50 0 -16 2 -5 4 22 4 28 0 40
-2 28 -4z m60 -30 c-23 -2 -64 -2 -90 0 -26 2 -7 3 42 3 50 0 71 -1 48 -3z
m-40 -30 c-18 -2 -48 -2 -65 0 -18 2 -4 4 32 4 36 0 50 -2 33 -4z m-20 -30
c-13 -2 -35 -2 -50 0 -16 2 -5 4 22 4 28 0 40 -2 28 -4z m35 -30 c-21 -2 -55
-2 -75 0 -21 2 -4 4 37 4 41 0 58 -2 38 -4z"/>
<path d="M4777 2562 c-15 -3 -17 -23 -17 -173 0 -219 18 -229 22 -11 l3 157
30 2 c25 2 26 1 7 -5 -13 -4 -23 -10 -23 -14 1 -5 1 -73 1 -153 l0 -145 243 2
242 3 0 150 0 150 -180 5 -180 6 185 -1 185 0 3 -157 c4 -218 22 -208 22 12
l0 169 -263 3 c-145 2 -271 2 -280 0z m413 -193 l0 -119 -150 0 -150 0 0 120
0 119 138 3 c75 2 143 1 150 -1 9 -2 12 -35 12 -122z"/>
<path d="M4900 2471 c0 -13 267 -14 275 -1 4 7 -39 10 -134 10 -78 0 -141 -4
-141 -9z"/>
<path d="M4900 2355 l0 -95 140 0 140 0 0 95 0 95 -140 0 -140 0 0 -95z m120
63 c0 -4 -20 -8 -45 -8 -25 0 -45 4 -45 8 0 5 20 9 45 8 25 0 45 -4 45 -8z
m50 -30 c0 -4 -31 -8 -70 -8 -41 0 -70 4 -70 10 0 7 27 10 70 8 39 -1 70 -6
70 -10z m-20 -28 c0 -6 -27 -10 -61 -10 -37 0 -58 4 -54 10 3 6 31 10 61 10
30 0 54 -4 54 -10z m-33 -26 c-11 -11 -87 -15 -87 -4 0 6 21 10 47 10 25 0 43
-3 40 -6z m81 -30 c-8 -7 -157 -8 -165 0 -3 3 33 6 82 6 49 0 86 -2 83 -6z"/>
<path d="M4720 2195 c0 -13 42 -15 320 -15 278 0 320 2 320 15 0 13 -42 15
-320 15 -278 0 -320 -2 -320 -15z"/>
<path d="M1577 2533 c-4 -3 -7 -12 -7 -19 0 -11 38 -14 173 -17 l172 -3 -172
-2 -173 -2 0 -139 c0 -117 2 -140 16 -145 9 -3 105 -6 214 -6 170 0 201 2 215
16 14 14 16 38 14 148 -1 72 -6 142 -10 154 -8 22 -10 22 -222 22 -118 0 -217
-3 -220 -7z m236 -185 c-25 -81 -37 -107 -48 -96 -9 9 48 178 61 178 8 0 4
-25 -13 -82z m-73 34 c0 -4 -10 -13 -22 -21 l-22 -14 22 -17 c21 -18 30 -40
15 -40 -5 0 -21 11 -38 24 l-30 24 24 26 c23 25 51 35 51 18z m161 -13 c16
-11 29 -23 29 -27 0 -4 -16 -18 -35 -31 -41 -27 -62 -19 -26 10 l24 20 -23 24
c-29 31 -9 33 31 4z"/>
<path d="M2834 2206 c-69 -30 -96 -100 -66 -169 42 -95 168 -103 222 -14 40
65 15 148 -53 180 -42 20 -62 21 -103 3z m113 -38 c9 -7 22 -28 30 -46 12 -29
11 -37 -7 -75 -11 -23 -17 -33 -14 -22 25 74 12 125 -37 145 -85 36 -165 -62
-109 -133 13 -16 32 -33 44 -37 15 -6 16 -9 5 -9 -9 -1 -28 8 -42 19 -51 40
-44 134 12 166 30 16 94 13 118 -8z"/>
<path d="M2985 1989 c-7 -11 100 -129 117 -129 22 0 2 31 -51 83 -38 37 -62
54 -66 46z"/>
<path d="M1090 2117 c-44 -15 -80 -68 -80 -117 0 -43 33 -98 70 -118 31 -16
105 -10 129 12 20 18 36 21 25 5 -7 -13 104 -129 123 -129 23 0 14 13 -52 80
l-64 65 14 41 c24 71 -8 137 -78 163 -34 13 -43 13 -87 -2z m99 -32 c16 -8 34
-28 41 -44 14 -35 6 -93 -15 -111 -20 -16 -19 -5 1 25 20 30 12 84 -14 109
-40 35 -107 29 -139 -13 -15 -20 -17 -76 -2 -102 6 -12 25 -27 42 -34 27 -12
29 -14 10 -15 -45 0 -89 69 -78 121 9 38 59 79 96 79 17 0 43 -7 58 -15z"/>
<path d="M3568 2039 c-41 -23 -12 -29 152 -29 94 0 170 -3 170 -7 0 -5 -77 -7
-170 -6 l-171 1 3 -141 3 -142 214 -3 c118 -1 219 2 223 6 14 14 11 314 -3
322 -18 12 -402 10 -421 -1z m392 -33 c0 -2 -11 -6 -25 -8 -14 -3 -25 -1 -25
3 0 5 11 9 25 9 14 0 25 -2 25 -4z m-168 -148 c-25 -84 -37 -107 -48 -96 -9
10 49 178 62 178 8 0 3 -27 -14 -82z m-72 33 c0 -5 -10 -15 -22 -24 l-23 -15
25 -20 c37 -30 16 -39 -24 -11 l-35 24 26 27 c26 27 53 37 53 19z m160 -13
c17 -12 30 -24 30 -27 0 -3 -16 -17 -35 -30 -41 -28 -62 -19 -25 10 l25 19
-22 19 c-43 36 -19 44 27 9z"/>
<path d="M260 2020 c0 -5 0 -13 0 -17 0 -5 78 -10 172 -13 l173 -6 -177 -2
-178 -2 0 -127 c0 -71 4 -134 8 -141 7 -9 59 -12 228 -10 l219 3 0 160 0 160
-222 3 c-147 1 -223 -1 -223 -8z m260 -97 c0 -23 -52 -173 -60 -173 -6 0 -10
6 -10 12 0 25 52 168 61 168 5 0 9 -3 9 -7z m-118 -71 l-21 -14 27 -24 c18
-16 22 -23 12 -24 -16 0 -78 46 -70 52 49 40 65 48 69 37 2 -7 -5 -19 -17 -27z
m178 16 c17 -12 30 -26 30 -31 0 -12 -42 -46 -57 -47 -19 0 -16 10 9 30 l22
17 -22 14 c-12 8 -22 19 -22 26 0 18 6 16 40 -9z"/>
<path d="M5520 1961 c0 -4 19 -26 43 -49 l43 -42 49 50 49 50 -92 -1 c-51 0
-92 -4 -92 -8z"/>
<path d="M5402 1868 c-51 -50 -92 -94 -92 -97 0 -3 46 -52 103 -108 l102 -103
153 153 152 152 -50 50 -50 49 -59 -58 c-55 -54 -59 -57 -73 -39 -7 10 -32 35
-54 55 l-40 38 -92 -92z m134 -166 c-5 -4 -146 137 -146 146 0 4 34 -27 75
-68 41 -41 73 -76 71 -78z m-128 61 c-2 -11 2 -17 11 -15 12 3 12 1 1 -15 -8
-10 -16 -20 -18 -23 -2 -3 -2 4 0 15 2 15 -2 19 -15 17 -17 -3 -17 -2 0 17 21
26 25 26 21 4z m38 -59 c-12 -6 -23 -9 -26 -6 -3 3 1 7 8 9 6 3 12 11 12 19 0
12 3 12 14 2 11 -10 10 -14 -8 -24z m24 -24 c-24 -15 -37 -11 -16 5 11 8 22
12 25 9 3 -3 -1 -9 -9 -14z m30 -25 c-14 -16 -25 -21 -16 -6 4 5 0 12 -6 14
-7 3 -2 6 11 6 20 1 21 -1 11 -14z m22 -18 c-7 -8 -9 -17 -5 -20 3 -4 2 -7 -4
-7 -20 0 -23 14 -5 30 20 20 30 17 14 -3z"/>
<path d="M1870 1750 c0 -220 18 -230 22 -12 l3 157 30 2 c28 2 28 1 5 -5 l-25
-8 0 -149 0 -150 243 -3 242 -2 0 145 c0 80 1 148 3 153 1 4 -79 9 -178 12
l-180 6 185 -1 185 0 3 -157 c4 -218 22 -208 22 12 l0 170 -280 0 -280 0 0
-170z m430 -20 l0 -120 -150 0 -150 0 0 120 0 120 150 0 150 0 0 -120z"/>
<path d="M2015 1830 c4 -6 60 -10 135 -10 75 0 131 4 135 10 4 6 -43 10 -135
10 -92 0 -139 -4 -135 -10z"/>
<path d="M2010 1715 l0 -95 140 0 140 0 0 95 0 95 -140 0 -140 0 0 -95z m120
59 c0 -2 -21 -4 -46 -4 -25 0 -43 4 -40 8 4 7 86 4 86 -4z m47 -28 c4 -3 -26
-6 -66 -6 -40 0 -70 4 -67 8 5 9 124 7 133 -2z m-27 -28 c0 -5 -25 -8 -55 -8
-30 0 -55 4 -55 8 0 5 25 8 55 8 30 -1 55 -4 55 -8z m-20 -28 c0 -5 -20 -10
-45 -10 -25 0 -45 5 -45 10 0 6 20 10 45 10 25 0 45 -4 45 -10z m70 -30 c0 -6
-33 -10 -80 -10 -47 0 -80 4 -80 10 0 6 33 10 80 10 47 0 80 -4 80 -10z"/>
<path d="M1826 1556 c3 -8 12 -17 19 -20 8 -3 150 -4 317 -3 279 2 303 3 306
20 3 16 -17 17 -322 17 -277 0 -325 -2 -320 -14z"/>
<path d="M4530 1809 c0 -42 -5 -70 -13 -77 -7 -6 -42 -12 -77 -14 l-65 -3 0
-123 c0 -76 4 -127 11 -132 5 -5 70 -10 143 -11 102 -1 136 2 142 13 14 22 11
384 -3 396 -7 5 -41 12 -75 14 l-63 4 0 -67z m60 -247 c0 -4 -45 -9 -100 -10
-65 -2 -100 0 -100 7 0 7 36 11 100 11 55 0 100 -3 100 -8z m60 -2 c0 -5 -9
-10 -20 -10 -11 0 -20 5 -20 10 0 6 9 10 20 10 11 0 20 -4 20 -10z m-102 -47
c-10 -2 -18 -8 -18 -13 0 -5 8 -11 18 -13 15 -4 15 -5 0 -6 -19 -1 -32 14 -23
29 3 6 14 9 23 9 15 -1 15 -2 0 -6z m77 -3 c-3 -5 -1 -10 5 -10 6 0 8 -4 5
-10 -10 -16 -21 -11 -22 10 -1 11 3 20 8 20 6 0 7 -4 4 -10z"/>
<path d="M4450 1795 l-64 -65 62 0 c56 0 62 2 67 23 4 13 5 43 3 66 l-3 42
-65 -66z"/>
<path d="M5086 1393 c-11 -11 -6 -23 9 -23 8 0 15 4 15 9 0 13 -16 22 -24 14z"/>
<path d="M3095 1369 c-4 -6 -5 -13 -2 -16 7 -7 27 6 27 18 0 12 -17 12 -25 -2z"/>
<path d="M3500 1426 c-6 -6 -10 -83 -10 -173 0 -138 2 -163 15 -163 13 0 15
24 15 160 l0 160 33 -1 c30 -2 30 -2 5 -6 l-28 -4 0 -155 0 -154 245 0 245 0
0 155 0 155 -177 3 -178 2 182 3 182 2 3 -157 c2 -114 6 -157 16 -161 9 -3 12
35 12 167 0 130 -3 171 -12 172 -136 5 -541 2 -548 -5z m420 -187 l0 -119
-145 0 -145 0 0 119 c0 141 -18 128 168 123 l122 -3 0 -120z"/>
<path d="M3645 1340 c7 -11 265 -11 265 1 0 5 -61 9 -136 9 -83 0 -133 -4
-129 -10z"/>
<path d="M3640 1225 l0 -95 135 0 135 0 0 95 0 95 -135 0 -135 0 0 -95z m120
63 c0 -4 -20 -8 -45 -8 -25 0 -45 5 -45 10 0 7 19 10 45 9 25 -2 45 -6 45 -11z
m50 -30 c0 -12 -128 -10 -135 2 -5 7 17 10 64 8 39 -1 71 -6 71 -10z m-35 -28
c-3 -5 -26 -10 -50 -10 -24 0 -47 5 -50 10 -4 6 15 10 50 10 35 0 54 -4 50
-10z m-19 -27 c-10 -10 -86 -12 -86 -2 0 5 21 9 47 9 25 0 43 -3 39 -7z m71
-29 c-8 -9 -157 -10 -157 -1 0 4 37 7 82 7 45 0 79 -3 75 -6z"/>
<path d="M3453 1068 c6 -19 638 -19 645 0 3 9 -66 12 -323 12 -257 0 -326 -3
-322 -12z"/>
<path d="M1143 1383 l47 -48 47 48 48 47 -95 0 -95 0 48 -47z"/>
<path d="M1025 1370 l-49 -50 74 -75 c41 -41 72 -77 69 -79 -3 -3 -38 28 -79
69 l-74 75 -38 -37 -38 -37 105 -106 105 -106 150 150 149 149 -32 37 c-59 68
-63 68 -123 9 l-54 -53 -53 52 c-29 29 -55 52 -58 52 -2 0 -27 -23 -54 -50z
m-21 -160 c7 0 21 -10 32 -22 10 -12 14 -18 7 -15 -6 4 -14 3 -18 -3 -3 -5
-11 -10 -18 -10 -6 0 -3 6 8 13 13 10 15 16 6 21 -6 4 -19 2 -27 -5 -12 -10
-13 -9 -7 6 5 14 3 17 -10 12 -14 -5 -15 -4 -4 14 10 16 13 17 15 4 2 -8 9
-15 16 -15z m59 -67 c-5 -12 -2 -15 10 -10 23 9 43 -19 27 -38 -10 -12 -10
-15 0 -15 8 0 11 -3 7 -6 -3 -3 -11 -3 -17 1 -8 5 -8 11 1 21 17 20 3 30 -18
13 -11 -9 -14 -10 -9 -1 4 6 2 12 -3 12 -6 0 -11 9 -11 20 0 11 4 20 10 20 5
0 6 -8 3 -17z m102 -21 c-6 -7 -35 18 -35 31 0 5 9 2 20 -8 11 -10 18 -20 15
-23z"/>
<path d="M3032 1369 c2 -7 10 -15 17 -17 8 -3 12 1 9 9 -2 7 -10 15 -17 17 -8
3 -12 -1 -9 -9z"/>
<path d="M2319 1228 c-19 -7 -19 -17 -17 -210 l3 -203 145 0 145 0 3 203 c2
167 0 203 -12 208 -22 8 -245 10 -267 2z m261 -25 c0 -5 -56 -7 -125 -5 l-125
3 0 -165 0 -166 121 0 120 0 -3 125 c-2 69 1 125 5 125 4 0 6 -57 5 -127 l-3
-128 -127 -3 -128 -3 0 176 0 175 130 0 c72 0 130 -3 130 -7z m-130 -43 c0 -5
-21 -9 -47 -8 l-48 1 45 7 c25 4 46 8 48 8 1 1 2 -2 2 -8z m50 -36 c0 -2 -33
-3 -72 -2 l-73 1 60 6 c56 6 85 4 85 -5z m-25 -24 c4 -6 -17 -9 -57 -8 l-63 1
50 7 c28 4 53 8 57 8 4 1 10 -2 13 -8z m-25 -30 c0 -6 -20 -10 -45 -10 -59 0
-58 14 0 17 25 1 45 -2 45 -7z m80 -29 c0 -12 -157 -14 -165 -1 -4 6 24 10 79
10 47 0 86 -4 86 -9z m-50 -28 c0 -11 -108 -15 -114 -4 -3 4 22 9 54 10 33 1
60 -2 60 -6z m-30 -30 c0 -5 -20 -9 -45 -9 -25 -1 -45 2 -45 7 0 5 20 9 45 9
25 0 45 -3 45 -7z m49 -27 c-7 -8 -129 -10 -136 -3 -3 4 27 7 67 7 40 0 71 -2
69 -4z"/>
<path d="M5487 996 c-4 -9 -3 -17 1 -20 4 -2 81 -4 171 -5 90 0 166 -3 169 -6
3 -3 -74 -5 -171 -5 l-177 0 0 -127 c0 -71 4 -134 8 -141 7 -9 59 -12 228 -10
l219 3 0 160 0 160 -221 3 c-189 2 -223 0 -227 -12z m263 -94 c0 -23 -53 -172
-61 -172 -5 0 -9 6 -9 12 0 25 52 168 61 168 5 0 9 -4 9 -8z m-100 -45 c0 -7
-10 -18 -21 -25 l-21 -14 21 -14 c21 -15 28 -34 14 -34 -5 0 -21 11 -38 24
l-29 23 29 26 c33 29 45 33 45 14z m160 -9 c38 -28 38 -39 -1 -62 -37 -22 -53
-12 -21 13 l23 17 -20 19 c-20 17 -28 35 -16 35 3 0 19 -10 35 -22z"/>
<path d="M1821 783 c-1 -37 -7 -73 -13 -80 -6 -8 -35 -13 -74 -13 l-64 0 0
-75 0 -74 108 -4 107 -3 -107 -2 -108 -2 0 -39 c0 -72 -3 -71 144 -71 89 0
136 4 144 12 17 17 17 389 0 406 -7 7 -39 12 -73 12 l-62 0 -2 -67z m16 -290
c-20 -5 -17 -30 2 -25 7 1 9 -3 6 -9 -5 -8 -12 -6 -22 4 -18 18 -9 38 15 36
15 -1 15 -2 -1 -6z m38 -3 c-3 -5 -1 -10 5 -10 7 0 10 -5 8 -11 -6 -19 -21
-14 -24 9 -2 12 1 22 7 22 5 0 7 -4 4 -10z m50 -13 c0 -26 -18 -25 -22 1 -2
16 1 22 9 20 7 -3 13 -12 13 -21z"/>
<path d="M1736 764 l-59 -64 54 0 c30 0 60 5 67 12 13 13 17 119 5 117 -5 -1
-35 -30 -67 -65z"/>
<path d="M4156 834 c-12 -31 -7 -389 6 -402 15 -15 274 -17 283 -2 8 13 8 398
0 410 -4 6 -66 10 -145 10 -116 0 -139 -2 -144 -16z m274 -11 c0 -5 -54 -7
-120 -5 l-120 3 0 -165 0 -166 115 0 114 0 4 128 3 127 2 -132 2 -132 -121 -3
c-67 -2 -123 1 -126 6 -8 11 -12 294 -6 324 5 21 9 22 129 22 68 0 124 -3 124
-7z m-137 -50 c-13 -2 -35 -2 -50 0 -16 2 -5 4 22 4 28 0 40 -2 28 -4z m35
-30 c-21 -2 -57 -2 -80 0 -24 2 -7 4 37 4 44 0 63 -2 43 -4z m-20 -30 c-15 -2
-42 -2 -60 0 -18 2 -6 4 27 4 33 0 48 -2 33 -4z m-15 -30 c-13 -2 -35 -2 -50
0 -16 2 -5 4 22 4 28 0 40 -2 28 -4z m50 -30 c-24 -2 -62 -2 -85 0 -24 2 -5 4
42 4 47 0 66 -2 43 -4z m-35 -30 c-15 -2 -42 -2 -60 0 -18 2 -6 4 27 4 33 0
48 -2 33 -4z m-20 -30 c-16 -2 -40 -2 -55 0 -16 2 -3 4 27 4 30 0 43 -2 28 -4z
m72 -29 c0 -2 -33 -3 -72 -2 -63 1 -67 2 -28 7 43 6 100 3 100 -5z"/>
<path d="M677 823 c-4 -3 -7 -80 -7 -170 0 -138 2 -163 15 -163 13 0 15 24 15
155 0 85 3 155 8 156 4 0 15 2 25 4 9 2 17 -1 17 -6 0 -5 -9 -9 -20 -9 -19 0
-20 -7 -20 -150 l0 -150 245 0 245 0 0 150 0 150 -175 0 c-96 0 -175 3 -175 8
0 4 81 6 180 4 l180 -3 0 -154 c0 -132 2 -155 15 -155 13 0 15 23 13 168 l-3
167 -276 3 c-151 1 -278 -1 -282 -5z m423 -188 l0 -125 -145 0 -145 0 0 125 0
125 145 0 145 0 0 -125z"/>
<path d="M820 740 c0 -6 52 -10 135 -10 83 0 135 4 135 10 0 6 -52 10 -135 10
-83 0 -135 -4 -135 -10z"/>
<path d="M822 623 l3 -98 133 -2 132 -2 0 99 0 100 -135 0 -136 0 3 -97z m101
60 c-13 -2 -35 -2 -50 0 -16 2 -5 4 22 4 28 0 40 -2 28 -4z m35 -30 c-21 -2
-55 -2 -75 0 -21 2 -4 4 37 4 41 0 58 -2 38 -4z m-20 -30 c-15 -2 -42 -2 -60
0 -18 2 -6 4 27 4 33 0 48 -2 33 -4z m-15 -30 c-13 -2 -35 -2 -50 0 -16 2 -5
4 22 4 28 0 40 -2 28 -4z m50 -30 c-24 -2 -62 -2 -85 0 -24 2 -5 4 42 4 47 0
66 -2 43 -4z"/>
<path d="M630 472 c1 -31 18 -32 331 -30 291 3 314 4 317 21 3 16 -16 17 -322
17 -179 -1 -326 -4 -326 -8z"/>
<path d="M4985 769 c-107 -29 -129 -177 -35 -233 35 -20 92 -21 131 0 45 23
73 91 60 142 -18 67 -90 108 -156 91z m108 -59 c33 -37 36 -87 7 -121 -10 -13
-19 -19 -20 -12 0 6 4 14 9 18 19 11 22 63 7 93 -42 82 -164 52 -168 -41 -1
-41 12 -61 55 -83 16 -9 27 -18 24 -20 -13 -13 -70 30 -83 63 -24 56 1 114 56
136 32 13 85 -2 113 -33z m-43 -160 c-19 -13 -30 -13 -30 0 0 6 10 10 23 10
18 0 19 -2 7 -10z"/>
<path d="M5116 542 c-3 -5 23 -37 58 -71 83 -82 101 -64 20 19 -59 60 -69 67
-78 52z"/>
<path d="M2724 689 c-13 -22 18 -25 176 -21 117 3 160 1 160 -7 0 -9 -46 -11
-170 -9 l-171 3 3 -140 3 -140 220 0 220 0 3 163 2 162 -219 0 c-151 0 -222
-4 -227 -11z m406 -29 c0 -5 -11 -10 -25 -10 -14 0 -25 5 -25 10 0 6 11 10 25
10 14 0 25 -4 25 -10z m-150 -74 c0 -21 -41 -150 -51 -160 -21 -23 -19 9 7 88
26 78 44 108 44 72z m-90 -35 c0 -6 -10 -17 -22 -26 l-23 -16 25 -19 c37 -28
17 -36 -26 -9 l-37 23 33 28 c36 29 50 35 50 19z m165 -16 l30 -25 -30 -25
c-31 -25 -55 -32 -55 -16 0 5 10 16 23 25 l22 16 -22 16 c-13 9 -23 20 -23 25
0 16 24 9 55 -16z"/>
<path d="M3552 547 l-52 -53 75 -74 c41 -41 75 -79 75 -85 0 -5 -36 26 -80 70
l-80 80 -37 -38 -38 -37 106 -106 106 -106 151 149 152 149 -53 52 -53 52 -54
-55 -54 -55 -56 55 -56 55 -52 -53z m-34 -149 c-2 -7 3 -12 11 -10 12 3 12 1
1 -15 -22 -28 -24 -29 -17 -10 4 11 1 17 -10 17 -13 0 -13 3 -3 15 15 18 21
19 18 3z m50 -49 c3 -8 1 -11 -3 -7 -5 4 -15 2 -24 -5 -14 -10 -14 -10 -4 4 7
9 9 19 5 24 -4 4 -1 6 7 3 8 -2 17 -11 19 -19z m14 -28 c-10 -6 -10 -11 3 -21
10 -8 15 -9 15 -1 0 6 5 11 11 11 8 0 7 -5 -1 -15 -17 -21 -5 -31 17 -14 16
13 17 12 5 -3 -8 -9 -11 -23 -7 -30 4 -7 -10 5 -32 27 -34 35 -37 42 -23 52 8
6 17 9 20 7 2 -3 -1 -9 -8 -13z m108 -23 c0 -6 -7 -5 -15 2 -8 7 -15 17 -15
22 0 6 7 5 15 -2 8 -7 15 -17 15 -22z"/>
<path d="M3664 553 l46 -48 47 48 48 47 -94 0 -94 0 47 -47z"/>
<path d="M5840 4054 c0 -72 3 -95 13 -92 8 3 13 34 15 96 2 77 0 92 -13 92
-12 0 -15 -16 -15 -96z"/>
<path d="M5880 4055 l0 -95 188 2 c226 4 258 22 45 26 l-143 3 0 79 0 80 -45
0 -45 0 0 -95z"/>
<path d="M5981 4075 l2 -75 138 0 139 0 0 75 0 75 -140 0 -141 0 2 -75z m169
56 c0 -4 -31 -9 -70 -10 -38 -1 -70 2 -70 7 0 4 32 9 70 10 39 1 70 -2 70 -7z
m-25 -30 c6 -11 -100 -9 -111 2 -4 4 18 7 49 7 31 0 58 -4 62 -9z m-29 -30
c-6 -9 -74 -6 -84 4 -3 3 16 5 42 5 26 0 45 -4 42 -9z m81 -27 c-9 -9 -158
-11 -163 -2 -3 4 34 8 82 8 48 0 85 -3 81 -6z"/>
<path d="M5800 3935 c0 -13 32 -15 230 -15 198 0 230 2 230 15 0 13 -32 15
-230 15 -198 0 -230 -2 -230 -15z"/>
<path d="M6206 3387 c-20 -25 -26 -46 -26 -81 0 -42 5 -53 35 -83 43 -43 58
-37 21 7 -46 56 -47 112 -1 152 28 24 32 38 11 38 -8 0 -26 -15 -40 -33z"/>
<path d="M6224 3349 c-16 -32 -13 -71 8 -96 21 -26 28 -11 28 57 0 76 -10 87
-36 39z"/>
<path d="M5966 2788 c-39 -22 -9 -28 139 -28 131 0 155 2 155 15 0 12 -19 15
-102 17 -57 1 -119 3 -139 4 -20 0 -44 -3 -53 -8z"/>
<path d="M5950 2615 c0 -89 4 -135 12 -143 8 -8 57 -12 155 -12 l143 0 0 38
c0 21 -5 43 -11 49 -8 8 -7 17 3 32 11 17 11 25 -1 43 -10 16 -10 23 -2 26 12
4 16 92 4 92 -5 0 -74 2 -155 3 l-148 3 0 -131z m270 71 c0 -8 -52 -171 -55
-175 -2 -1 -8 0 -14 3 -8 5 9 68 44 164 4 11 25 18 25 8z m-100 -45 c0 -6 -9
-16 -20 -24 l-20 -14 20 -18 c11 -10 20 -22 20 -27 0 -15 -18 -8 -47 17 l-28
25 28 25 c29 26 47 32 47 16z"/>
<path d="M2 2685 l0 -35 138 0 139 0 3 -115 c2 -64 2 -120 0 -125 -2 -6 -61
-10 -143 -10 -86 0 -139 -4 -139 -10 0 -6 70 -10 190 -10 l190 0 0 150 0 150
-177 3 -178 2 183 3 182 2 0 -155 c0 -132 2 -155 15 -155 13 0 15 23 13 168
l-3 167 -207 3 -206 2 0 -35z"/>
<path d="M5 2630 c-4 -6 42 -10 129 -10 84 0 136 4 136 10 0 6 -50 10 -129 10
-76 0 -132 -4 -136 -10z"/>
<path d="M7 2603 c-4 -3 -7 -48 -7 -100 l0 -93 135 0 135 0 0 100 0 100 -128
0 c-71 0 -132 -3 -135 -7z m96 -30 c-13 -2 -35 -2 -50 0 -16 2 -5 4 22 4 28 0
40 -2 28 -4z m35 -30 c-21 -2 -55 -2 -75 0 -21 2 -4 4 37 4 41 0 58 -2 38 -4z
m-20 -30 c-15 -2 -42 -2 -60 0 -18 2 -6 4 27 4 33 0 48 -2 33 -4z m-20 -30
c-16 -2 -40 -2 -55 0 -16 2 -3 4 27 4 30 0 43 -2 28 -4z m54 -30 c-23 -2 -61
-2 -85 0 -23 2 -4 4 43 4 47 0 66 -2 42 -4z"/>
<path d="M228 2362 c-194 -2 -228 -5 -228 -17 0 -23 448 -22 457 0 3 9 4 17 2
18 -2 1 -106 1 -231 -1z"/>
<path d="M6239 2163 c-2 -47 2 -78 12 -87 5 -6 9 14 9 52 0 35 -4 62 -10 62
-5 0 -10 -12 -11 -27z"/>
<path d="M6177 1594 c-4 -4 -7 -83 -7 -176 0 -218 18 -227 22 -10 l3 157 33 3
c20 2 32 8 29 15 -4 13 -69 22 -80 11z"/>
<path d="M6210 1411 c0 -127 2 -150 16 -155 9 -3 20 -4 25 0 5 3 9 72 9 155
l0 149 -25 0 -25 0 0 -149z"/>
<path d="M6130 1225 c0 -12 14 -15 65 -15 51 0 65 3 65 15 0 12 -14 15 -65 15
-51 0 -65 -3 -65 -15z"/>
<path d="M60 813 c-30 -11 -60 -47 -60 -72 0 -26 0 -26 20 6 39 65 140 61 175
-7 19 -36 14 -90 -10 -110 -20 -16 -19 -5 1 25 33 51 -14 125 -80 125 -99 0
-126 -123 -38 -170 21 -10 32 -19 25 -20 -24 0 -60 22 -76 48 l-18 27 3 -29
c6 -62 109 -92 171 -51 80 52 74 180 -9 220 -32 15 -76 18 -104 8z"/>
<path d="M205 590 c-11 -17 111 -138 125 -124 6 6 -11 30 -54 73 -43 43 -66
59 -71 51z"/>
<path d="M6075 528 c-3 -13 -4 -106 -3 -208 l3 -185 93 -3 92 -3 0 26 c0 25
-1 25 -80 25 -44 0 -80 3 -80 8 -2 20 -2 262 -1 300 l1 42 74 0 c41 0 78 5 81
10 4 6 -26 10 -84 10 -86 0 -91 -1 -96 -22z"/>
<path d="M6110 355 l0 -166 73 3 72 3 0 35 0 35 -53 2 c-76 2 -78 13 -4 13 54
0 62 2 62 19 0 23 -11 27 -72 26 -71 -2 -58 13 15 18 l62 3 -62 2 c-35 1 -63
6 -63 12 0 5 15 9 33 8 74 -2 87 1 87 22 0 18 -7 20 -62 20 -50 1 -59 3 -44
11 10 6 33 9 50 6 18 -3 39 -1 47 4 9 6 -8 9 -50 9 -77 0 -76 10 0 13 53 2 54
3 57 35 l3 32 -75 0 -76 0 0 -165z m98 118 c-16 -2 -40 -2 -55 0 -16 2 -3 4
27 4 30 0 43 -2 28 -4z m18 -85 c3 -4 -15 -8 -40 -8 -25 0 -46 5 -46 10 0 12
79 10 86 -2z m2 -83 c-10 -10 -88 -14 -88 -5 0 6 21 10 47 10 25 0 44 -2 41
-5z"/>
<path d="M5580 256 c0 -30 -4 -66 -10 -80 -9 -25 -14 -26 -80 -26 l-70 0 0
-75 0 -75 150 0 150 0 0 145 c0 166 0 165 -89 165 l-51 0 0 -54z"/>
<path d="M2246 281 c-39 -26 -55 -57 -56 -106 0 -72 51 -124 124 -125 130 -1
179 177 65 236 -39 20 -99 17 -133 -5z m133 -27 c39 -32 49 -80 26 -124 -9
-17 -19 -30 -22 -27 -2 3 3 17 12 31 28 43 1 106 -54 127 -63 24 -134 -45
-110 -108 14 -39 38 -63 63 -64 18 -1 18 -2 3 -6 -25 -6 -62 20 -76 55 -18 43
-2 92 39 120 43 29 81 28 119 -4z m-29 -174 c-19 -13 -30 -13 -30 0 0 6 10 10
23 10 18 0 19 -2 7 -10z"/>
<path d="M5497 230 c-31 -33 -57 -62 -57 -65 0 -3 25 -5 55 -5 48 0 57 3 64
23 8 23 8 93 -1 102 -2 3 -30 -22 -61 -55z"/>
<path d="M5 212 c-12 -12 -3 -21 23 -25 l27 -4 -28 -2 -28 -1 2 -90 c3 -79 5
-90 21 -90 15 0 18 8 18 50 0 28 4 50 9 50 5 0 7 -22 4 -50 -3 -40 -1 -50 11
-50 13 0 16 16 16 99 0 59 -4 102 -11 106 -14 9 -57 14 -64 7z m55 -77 c0 -8
-4 -15 -10 -15 -5 0 -10 7 -10 15 0 8 5 15 10 15 6 0 10 -7 10 -15z"/>
<path d="M927 124 c-26 -26 -1 -31 160 -33 92 -1 169 -4 172 -6 2 -3 -73 -5
-167 -5 l-172 0 0 -40 0 -40 120 0 c100 0 120 3 120 15 0 8 5 15 10 15 6 0 10
-7 10 -15 0 -12 17 -15 95 -15 l96 0 -3 63 -3 62 -216 3 c-118 1 -218 -1 -222
-4z"/>
<path d="M4428 94 c-31 -16 -48 -43 -48 -72 0 -17 6 -20 53 -18 28 1 57 4 62
8 6 4 17 3 25 -3 27 -16 50 -10 50 14 -1 40 -54 88 -97 87 -10 -1 -30 -7 -45
-16z"/>
<path d="M2410 72 c0 -16 66 -72 85 -72 15 0 12 8 -20 40 -36 37 -65 51 -65
32z"/>
</g>
</svg>
